<svg width="100" height="100" viewBox="0 0 100 100" fill="none" xmlns="http://www.w3.org/2000/svg">
<g clip-path="url(#clip0_102_113)">
<path d="M50 0C36.7392 0 24.0215 5.26784 14.6447 14.6447C5.26784 24.0215 0 36.7392 0 50C0 63.2608 5.26784 75.9785 14.6447 85.3553C24.0215 94.7322 36.7392 100 50 100H100V50C99.9987 36.7396 94.7304 24.0227 85.3539 14.6461C75.9773 5.26959 63.2604 0.00132584 50 0V0ZM75 75H50C45.0555 75 40.222 73.5338 36.1107 70.7867C31.9995 68.0397 28.7952 64.1352 26.903 59.5671C25.0108 54.9989 24.5157 49.9723 25.4804 45.1227C26.445 40.2732 28.826 35.8186 32.3223 32.3223C35.8186 28.826 40.2732 26.445 45.1227 25.4804C49.9723 24.5157 54.9989 25.0108 59.5671 26.903C64.1352 28.7952 68.0397 31.9995 70.7867 36.1107C73.5338 40.222 75 45.0555 75 50V75Z" fill="black" style="fill:black;fill-opacity:1;"/>
</g>
<defs>
<clipPath id="clip0_102_113">
<rect width="100" height="100" fill="white" style="fill:white;fill-opacity:1;"/>
</clipPath>
</defs>
</svg>
