<svg width="100" height="100" viewBox="0 0 100 100" fill="none" xmlns="http://www.w3.org/2000/svg">
<g clip-path="url(#clip0_102_104)">
<path d="M100 0H0V100H100V0Z" fill="#B7B7B7" style="fill:#B7B7B7;fill:color(display-p3 0.7159 0.7159 0.7159);fill-opacity:1;"/>
<path d="M50 0H0V50H50V0Z" fill="black" style="fill:black;fill-opacity:1;"/>
<path d="M36.1351 36.135C33.5591 38.7089 30.1704 40.31 26.5463 40.6656C22.9222 41.0213 19.2869 40.1094 16.2598 38.0853C13.2326 36.0613 11.0009 33.0503 9.94469 29.5653C8.88852 26.0804 9.0733 22.337 10.4675 18.973C11.8618 15.609 14.3792 12.8324 17.591 11.1164C20.8028 9.4003 24.5102 8.85086 28.0817 9.56167C31.6531 10.2725 34.8676 12.1996 37.1776 15.0146C39.4876 17.8297 40.7501 21.3585 40.7501 25C40.7535 27.0687 40.3475 29.1177 39.5554 31.0287C38.7634 32.9398 37.6009 34.6752 36.1351 36.135Z" fill="#B7B7B7" style="fill:#B7B7B7;fill:color(display-p3 0.7159 0.7159 0.7159);fill-opacity:1;"/>
<path d="M86.1351 36.135C83.5591 38.7089 80.1704 40.31 76.5463 40.6656C72.9222 41.0213 69.2869 40.1094 66.2598 38.0853C63.2326 36.0613 61.0009 33.0503 59.9447 29.5653C58.8885 26.0804 59.0733 22.337 60.4675 18.973C61.8618 15.609 64.3792 12.8324 67.591 11.1164C70.8028 9.4003 74.5102 8.85086 78.0817 9.56167C81.6531 10.2725 84.8676 12.1996 87.1776 15.0146C89.4876 17.8297 90.7501 21.3585 90.7501 25C90.7535 27.0687 90.3475 29.1177 89.5554 31.0287C88.7634 32.9398 87.6009 34.6752 86.1351 36.135Z" fill="black" style="fill:black;fill-opacity:1;"/>
<path d="M100 50H50V100H100V50Z" fill="black" style="fill:black;fill-opacity:1;"/>
<path d="M86.1351 86.135C83.5591 88.7089 80.1704 90.31 76.5463 90.6656C72.9222 91.0213 69.2869 90.1094 66.2598 88.0853C63.2326 86.0613 61.0009 83.0503 59.9447 79.5653C58.8885 76.0804 59.0733 72.337 60.4675 68.973C61.8618 65.609 64.3792 62.8324 67.591 61.1164C70.8028 59.4003 74.5102 58.8509 78.0817 59.5617C81.6531 60.2725 84.8676 62.1996 87.1776 65.0146C89.4876 67.8296 90.7501 71.3585 90.7501 75C90.7535 77.0687 90.3475 79.1177 89.5554 81.0287C88.7634 82.9398 87.6009 84.6752 86.1351 86.135Z" fill="#B7B7B7" style="fill:#B7B7B7;fill:color(display-p3 0.7159 0.7159 0.7159);fill-opacity:1;"/>
<path d="M50 50H0V100H50V50Z" fill="#B7B7B7" style="fill:#B7B7B7;fill:color(display-p3 0.7159 0.7159 0.7159);fill-opacity:1;"/>
<path d="M36.1351 86.135C33.5591 88.7089 30.1704 90.31 26.5463 90.6656C22.9222 91.0213 19.2869 90.1094 16.2598 88.0853C13.2326 86.0613 11.0009 83.0503 9.94469 79.5653C8.88852 76.0804 9.0733 72.337 10.4675 68.973C11.8618 65.609 14.3792 62.8324 17.591 61.1164C20.8028 59.4003 24.5102 58.8509 28.0817 59.5617C31.6531 60.2725 34.8676 62.1996 37.1776 65.0146C39.4876 67.8296 40.7501 71.3585 40.7501 75C40.7535 77.0687 40.3475 79.1177 39.5554 81.0287C38.7634 82.9398 37.6009 84.6752 36.1351 86.135Z" fill="black" style="fill:black;fill-opacity:1;"/>
</g>
<defs>
<clipPath id="clip0_102_104">
<rect width="100" height="100" fill="white" style="fill:white;fill-opacity:1;"/>
</clipPath>
</defs>
</svg>
