<svg width="100" height="100" viewBox="0 0 100 100" fill="none" xmlns="http://www.w3.org/2000/svg">
<g clip-path="url(#clip0_102_97)">
<path d="M92.043 50C92.043 50 77.614 100 50 100C36.7392 100 24.0215 94.7322 14.6447 85.3553C5.26784 75.9785 0 63.2608 0 50C0 36.7392 5.26784 24.0215 14.6447 14.6447C24.0215 5.26784 36.7392 0 50 0C77.614 0 92.043 50 92.043 50Z" fill="black" style="fill:black;fill-opacity:1;"/>
<path d="M50 0C63.2608 0 75.9785 5.26784 85.3553 14.6447C94.7322 24.0215 100 36.7392 100 50C100 63.2608 94.7322 75.9785 85.3553 85.3553C75.9785 94.7322 63.2608 100 50 100" fill="#B7B7B7" style="fill:#B7B7B7;fill:color(display-p3 0.7159 0.7159 0.7159);fill-opacity:1;"/>
<path d="M74.75 74.75C71.503 78.0044 67.645 80.5852 63.3976 82.3442C59.1502 84.1033 54.5972 85.0058 50 85V70C55.3043 70 60.3914 67.8929 64.1421 64.1421C67.8929 60.3914 70 55.3043 70 50C70 44.6957 67.8929 39.6086 64.1421 35.8579C60.3914 32.1071 55.3043 30 50 30V15C56.9227 14.9995 63.6901 17.0519 69.4463 20.8978C75.2025 24.7436 79.6889 30.21 82.3382 36.6057C84.9874 43.0015 85.6806 50.0392 84.3299 56.8289C82.9792 63.6185 79.6453 69.8552 74.75 74.75Z" fill="black" style="fill:black;fill-opacity:1;"/>
<path d="M50 15V85C45.4037 85 40.8525 84.0947 36.6061 82.3358C32.3597 80.5769 28.5013 77.9988 25.2513 74.7487C22.0012 71.4987 19.4231 67.6403 17.6642 63.3939C15.9053 59.1475 15 54.5963 15 50C15 45.4037 15.9053 40.8525 17.6642 36.6061C19.4231 32.3597 22.0012 28.5013 25.2513 25.2513C28.5013 22.0012 32.3597 19.4231 36.6061 17.6642C40.8525 15.9053 45.4037 15 50 15Z" fill="#B7B7B7" style="fill:#B7B7B7;fill:color(display-p3 0.7159 0.7159 0.7159);fill-opacity:1;"/>
<path d="M64.14 64.14C62.2851 65.9997 60.0811 67.4748 57.6545 68.4804C55.228 69.486 52.6267 70.0024 50 70V30C53.955 30.0008 57.821 31.1743 61.1092 33.372C64.3974 35.5697 66.9602 38.6929 68.4736 42.3469C69.987 46.0009 70.383 50.0216 69.6117 53.9006C68.8403 57.7797 66.9362 61.343 64.14 64.14Z" fill="#B7B7B7" style="fill:#B7B7B7;fill:color(display-p3 0.7159 0.7159 0.7159);fill-opacity:1;"/>
<path d="M50 30V70C44.6957 70 39.6086 67.8929 35.8579 64.1421C32.1071 60.3914 30 55.3043 30 50C30 44.6957 32.1071 39.6086 35.8579 35.8579C39.6086 32.1071 44.6957 30 50 30Z" fill="black" style="fill:black;fill-opacity:1;"/>
</g>
<defs>
<clipPath id="clip0_102_97">
<rect width="100" height="100" fill="white" style="fill:white;fill-opacity:1;"/>
</clipPath>
</defs>
</svg>
