<svg width="100" height="100" viewBox="0 0 100 100" fill="none" xmlns="http://www.w3.org/2000/svg">
<path d="M0 100V0H60V40C60 47.8793 58.4481 55.6815 55.4328 62.961C52.4175 70.2405 47.9979 76.8549 42.4264 82.4264C31.1742 93.6786 15.913 100 0 100H0Z" fill="black" style="fill:black;fill-opacity:1;"/>
<path d="M79.8041 37.957C84.2825 37.957 87.9131 34.3265 87.9131 29.848C87.9131 25.3695 84.2825 21.739 79.8041 21.739C75.3256 21.739 71.6951 25.3695 71.6951 29.848C71.6951 34.3265 75.3256 37.957 79.8041 37.957Z" fill="#B7B7B7" style="fill:#B7B7B7;fill:color(display-p3 0.7159 0.7159 0.7159);fill-opacity:1;"/>
<path d="M79.8041 78.261C84.2825 78.261 87.9131 74.6304 87.9131 70.152C87.9131 65.6735 84.2825 62.043 79.8041 62.043C75.3256 62.043 71.6951 65.6735 71.6951 70.152C71.6951 74.6304 75.3256 78.261 79.8041 78.261Z" fill="#B7B7B7" style="fill:#B7B7B7;fill:color(display-p3 0.7159 0.7159 0.7159);fill-opacity:1;"/>
</svg>
