<svg width="100" height="100" viewBox="0 0 100 100" fill="none" xmlns="http://www.w3.org/2000/svg">
<g clip-path="url(#clip0_102_32)">
<path d="M0 0V100H100V0H0ZM67.69 67.69C63.5968 71.789 58.2089 74.3417 52.4444 74.9131C46.6799 75.4845 40.8956 74.0391 36.0774 70.8234C31.2592 67.6077 27.7053 62.8207 26.0212 57.2782C24.3372 51.7356 24.6274 45.7806 26.8422 40.428C29.0571 35.0754 33.0596 30.6565 38.1676 27.9245C43.2756 25.1924 49.173 24.3163 54.8546 25.4453C60.5362 26.5744 65.6505 29.6388 69.3258 34.1163C73.0011 38.5938 75.01 44.2073 75.01 50C75.0131 53.2851 74.3681 56.5386 73.112 59.5741C71.856 62.6096 70.0134 65.3676 67.69 67.69Z" fill="#B7B7B7" style="fill:#B7B7B7;fill:color(display-p3 0.7159 0.7159 0.7159);fill-opacity:1;"/>
<path d="M32.31 32.31C28.8087 35.8064 26.4237 40.2632 25.457 45.116C24.4904 49.9687 24.9855 54.9992 26.8797 59.5704C28.7739 64.1416 31.9821 68.0479 36.0978 70.7946C40.2136 73.5413 45.0519 75.0049 50 75V100C36.7392 100 24.0215 94.7322 14.6447 85.3553C5.26784 75.9785 0 63.2608 0 50C0 36.7392 5.26784 24.0215 14.6447 14.6447C24.0215 5.26784 36.7392 0 50 0V25C46.7156 24.9956 43.4625 25.639 40.427 26.8934C37.3916 28.1477 34.6333 29.9884 32.31 32.31Z" fill="black" style="fill:black;fill-opacity:1;"/>
</g>
<defs>
<clipPath id="clip0_102_32">
<rect width="100" height="100" fill="white" style="fill:white;fill-opacity:1;"/>
</clipPath>
</defs>
</svg>
