<svg width="100" height="100" viewBox="0 0 100 100" fill="none" xmlns="http://www.w3.org/2000/svg">
<g clip-path="url(#clip0_103_11)">
<path d="M0 0V100H100V0H0ZM62.5 62.5C60.0277 64.9724 56.8778 66.6561 53.4486 67.3383C50.0194 68.0204 46.4649 67.6704 43.2346 66.3324C40.0043 64.9944 37.2434 62.7286 35.3009 59.8214C33.3583 56.9143 32.3215 53.4964 32.3215 50C32.3215 46.5036 33.3583 43.0857 35.3009 40.1786C37.2434 37.2714 40.0043 35.0056 43.2346 33.6676C46.4649 32.3296 50.0194 31.9796 53.4486 32.6617C56.8778 33.3439 60.0277 35.0276 62.5 37.5C64.1429 39.1407 65.4463 41.0893 66.3355 43.2341C67.2248 45.379 67.6825 47.6781 67.6825 50C67.6825 52.3219 67.2248 54.621 66.3355 56.7659C65.4463 58.9107 64.1429 60.8593 62.5 62.5V62.5Z" fill="#B7B7B7" style="fill:#B7B7B7;fill:color(display-p3 0.7159 0.7159 0.7159);fill-opacity:1;"/>
<path d="M68.9199 17.22H31.0799L12.1499 50L31.0799 82.78H68.9199L87.8499 50L68.9199 17.22ZM62.4999 62.5C60.0276 64.9723 56.8777 66.6561 53.4485 67.3382C50.0193 68.0204 46.4648 67.6704 43.2345 66.3324C40.0042 64.9944 37.2433 62.7286 35.3008 59.8214C33.3582 56.9143 32.3214 53.4964 32.3214 50C32.3214 46.5036 33.3582 43.0857 35.3008 40.1785C37.2433 37.2714 40.0042 35.0056 43.2345 33.6676C46.4648 32.3296 50.0193 31.9795 53.4485 32.6617C56.8777 33.3439 60.0276 35.0276 62.4999 37.5C64.1428 39.1407 65.4462 41.0892 66.3354 43.2341C67.2247 45.379 67.6824 47.6781 67.6824 50C67.6824 52.3219 67.2247 54.621 66.3354 56.7658C65.4462 58.9107 64.1428 60.8592 62.4999 62.5V62.5Z" fill="black" style="fill:black;fill-opacity:1;"/>
</g>
<defs>
<clipPath id="clip0_103_11">
<rect width="100" height="100" fill="white" style="fill:white;fill-opacity:1;"/>
</clipPath>
</defs>
</svg>
