<svg width="100" height="100" viewBox="0 0 100 100" fill="none" xmlns="http://www.w3.org/2000/svg">
<path d="M81.3545 49.9989C85.4261 44.5146 88.794 39.0806 91.2646 33.9533C98.5407 18.8528 95.7836 11.4005 92.1895 7.80637C88.5954 4.21472 81.1433 1.46003 66.0432 8.73382C60.9159 11.2045 55.4821 14.575 49.9979 18.6442C44.5138 14.5725 39.08 11.2045 33.9528 8.73382C18.8526 1.45752 11.4005 4.21472 7.80641 7.80888C4.21484 11.403 1.4577 18.8553 8.73384 33.9558C11.2045 39.0832 14.5749 44.5171 18.644 50.0014C14.5723 55.4856 11.2045 60.9196 8.73384 66.0469C1.4577 81.145 4.21484 88.5997 7.80893 92.1914C9.75174 94.1342 12.8205 95.8333 17.621 95.8333C21.6977 95.8333 27.0184 94.6093 33.9553 91.2664C39.0825 88.7958 44.5163 85.4253 50.0005 81.3561C55.4846 85.4278 60.9184 88.7958 66.0457 91.2664C72.9825 94.6093 78.3033 95.8333 82.3799 95.8333C87.1779 95.8333 90.2492 94.1342 92.192 92.1914C95.7861 88.5997 98.5407 81.145 91.2671 66.0469C88.7965 60.9196 85.4261 55.4856 81.357 50.0014L81.3545 49.9989ZM85.9388 14.0597C89.0327 17.1537 85.8684 28.5218 75.6567 42.8382C72.9021 39.5909 69.9363 36.3637 66.7871 33.2144C63.6379 30.0651 60.4107 27.0967 57.1635 24.3446C71.4795 14.1351 82.8474 10.9682 85.9388 14.0622V14.0597ZM70.1374 49.9989C67.3048 53.4246 64.1104 56.9534 60.5339 60.5325C56.9574 64.1091 53.4262 67.3037 50.0005 70.1363C46.5748 67.3037 43.046 64.1091 39.467 60.5325C35.8905 56.956 32.6961 53.4246 29.8635 49.9989C32.6961 46.5731 35.8905 43.0443 39.467 39.4652C43.0435 35.8886 46.5723 32.6966 49.9954 29.864C53.4236 32.6966 56.9524 35.8836 60.5314 39.4652C64.1079 43.0418 67.3023 46.5731 70.1349 49.9989H70.1374ZM14.0646 14.0597C14.8186 13.3057 16.0628 12.9237 17.719 12.9237C22.8664 12.9237 32.0099 16.636 42.8299 24.3496C39.5852 27.1018 36.363 30.0651 33.2163 33.2119C30.0671 36.3612 27.0989 39.5884 24.3467 42.8357C14.135 28.5193 10.9707 17.1512 14.0646 14.0572V14.0597ZM14.0646 85.938C10.9707 82.844 14.135 71.4759 24.3467 57.1596C27.1014 60.4069 30.0671 63.6341 33.2163 66.7834C36.3656 69.9327 39.5927 72.901 42.8399 75.6532C28.5239 85.8626 17.1561 89.027 14.0621 85.9355L14.0646 85.938ZM85.9413 85.938C82.8474 89.032 71.4795 85.8677 57.1635 75.6557C60.4107 72.901 63.6379 69.9352 66.7871 66.7859C69.9363 63.6366 72.9046 60.4094 75.6567 57.1621C85.8684 71.4784 89.0327 82.8465 85.9388 85.9405L85.9413 85.938Z" fill="black" style="fill:black;fill-opacity:1;"/>
</svg>
