<svg width="100" height="100" viewBox="0 0 100 100" fill="none" xmlns="http://www.w3.org/2000/svg">
<path d="M93.2536 6.74612C86.6524 0.142084 68.9331 6.63758 50.0004 21.4487C31.065 6.63758 13.3484 0.142084 6.74437 6.74612C0.143115 13.3502 6.63863 31.0667 21.4469 50.0021C6.63863 68.9348 0.143115 86.6513 6.74437 93.2554C13.3484 99.8594 31.065 93.3639 50.0004 78.5556C68.9331 93.3639 86.6524 99.8594 93.2536 93.2554C99.8577 86.6513 93.3621 68.9348 78.5538 50.0021C93.3621 31.0667 99.8577 13.3502 93.2536 6.74612ZM65.997 50.0021L54.0803 51.5077C59.1815 54.3269 67.0295 60.1712 72.4841 65.6258C80.0233 73.1677 78.9407 75.1854 77.0288 77.1001C75.1141 79.012 73.0964 80.0946 65.5545 72.5555C60.1333 67.1314 54.3251 59.3279 51.4893 54.2295L50.0004 65.996L48.5031 54.1738C45.6645 59.2695 39.8619 67.0674 34.4435 72.4859C26.9044 80.025 24.8839 78.9424 22.972 77.0305C21.0573 75.1158 19.9747 73.0982 27.5166 65.5563C32.9351 60.1378 40.7164 54.3325 45.8176 51.4966L34.0037 50.0021L45.773 48.5105C40.6774 45.6774 32.8683 39.8693 27.4471 34.4452C19.9052 26.9061 20.9877 24.8857 22.9024 22.9737C24.8143 21.059 26.8348 19.9764 34.3739 27.5184C39.8286 32.9702 45.6756 40.8183 48.492 45.9167L50.0004 34.0055L51.5004 45.861C54.3168 40.7598 60.1666 32.9062 65.6241 27.446C73.166 19.9069 75.1837 20.9895 77.0983 22.9042C79.0103 24.8161 80.0956 26.8365 72.5537 34.3756C67.0963 39.8331 59.2232 45.6829 54.1248 48.4993L65.997 50.0021Z" fill="black" style="fill:black;fill-opacity:1;"/>
</svg>
