<svg width="100" height="100" viewBox="0 0 100 100" fill="none" xmlns="http://www.w3.org/2000/svg">
<path d="M82.3097 50.0014C85.105 48.2736 87.4391 46.52 89.0881 44.815C98.0819 35.5161 98.0819 20.4397 89.0881 11.1408C80.0943 1.8419 65.5126 1.8419 56.5189 11.1408C54.3865 13.3456 52.1602 16.7641 50.0001 20.8881C47.8401 16.767 45.6137 13.3456 43.4813 11.1408C34.4875 1.8419 19.9058 1.8419 10.9121 11.1408C1.91831 20.4397 1.91831 35.5161 10.9121 44.815C12.5611 46.52 14.8951 48.2707 17.6905 50.0014C14.8951 51.7292 12.5611 53.4828 10.9121 55.1849C1.91831 64.4838 1.91831 79.5602 10.9121 88.8591C19.9058 98.158 34.4875 98.158 43.4813 88.8591C45.6137 86.6543 47.8401 83.2358 50.0001 79.1119C52.1602 83.233 54.3865 86.6515 56.5189 88.8591C65.5126 98.158 80.0943 98.158 89.0881 88.8591C98.0819 79.5602 98.0819 64.4838 89.0881 55.1849C87.4391 53.4799 85.105 51.7292 82.3097 50.0014ZM76.1251 53.4656C82.1356 59.6801 82.1356 69.7587 76.1251 75.9732C70.1145 82.1877 60.3666 82.1877 54.3561 75.9732C52.9308 74.4995 51.442 72.2148 49.9973 69.4588C48.5527 72.2148 47.0639 74.4995 45.6386 75.9732C39.628 82.1877 29.8801 82.1877 23.8696 75.9732C17.859 69.7587 17.859 59.6801 23.8696 53.4656C24.9717 52.3261 26.5323 51.1552 28.3996 50.0014C26.5323 48.8448 24.9717 47.6738 23.8696 46.5343C17.859 40.3198 17.859 30.2412 23.8696 24.0267C29.8801 17.8122 39.628 17.8122 45.6386 24.0267C47.0639 25.5004 48.5527 27.7852 49.9973 30.5411C51.442 27.7852 52.928 25.5004 54.3561 24.0267C60.3666 17.8122 70.1145 17.8122 76.1251 24.0267C82.1356 30.2412 82.1356 40.3198 76.1251 46.5343C75.0229 47.6738 73.4623 48.8448 71.5951 50.0014C73.4623 51.1581 75.0229 52.329 76.1251 53.4656Z" fill="black" style="fill:black;fill-opacity:1;"/>
<path d="M62.4138 37.6606C59.5577 34.7075 54.9255 34.7075 52.0693 37.6606C51.3926 38.3603 50.6855 39.4455 49.9977 40.7564C49.3126 39.4484 48.6055 38.3603 47.926 37.6606C45.0699 34.7075 40.4376 34.7075 37.5815 37.6606C34.7254 40.6136 34.7254 45.403 37.5815 48.356C38.1063 48.8986 38.8466 49.4527 39.7332 50.0039C38.8466 50.5522 38.1035 51.1091 37.5815 51.6517C34.7254 54.6048 34.7254 59.3942 37.5815 62.3472C40.4376 65.3002 45.0699 65.3002 47.926 62.3472C48.6028 61.6475 49.3099 60.5622 49.9977 59.2514C50.6827 60.5594 51.3898 61.6475 52.0693 62.3472C54.9255 65.3002 59.5577 65.3002 62.4138 62.3472C65.2699 59.3942 65.2699 54.6048 62.4138 51.6517C61.889 51.1091 61.1487 50.5551 60.262 50.0039C61.1487 49.4555 61.8917 48.8986 62.4138 48.356C65.2699 45.403 65.2699 40.6136 62.4138 37.6606Z" fill="black" style="fill:black;fill-opacity:1;"/>
</svg>
