<svg width="100" height="100" viewBox="0 0 100 100" fill="none" xmlns="http://www.w3.org/2000/svg">
<path d="M95.8334 50C95.8334 44.2994 87.3125 39.2977 74.4887 36.4574C76.3665 31.6323 76.5107 27.7623 74.4837 25.7328C72.4318 23.6834 68.4996 23.85 63.6049 25.785C60.7745 12.807 55.7405 4.16663 50.0001 4.16663C44.2598 4.16663 39.1859 12.8692 36.363 25.9268C31.2991 23.855 27.2252 23.6311 25.1235 25.7328C23.0841 27.7722 23.2407 31.6746 25.1484 36.537C12.5261 39.3923 4.16675 44.3541 4.16675 50C4.16675 55.6458 12.6628 60.6898 25.4568 63.5326C23.2631 68.7432 22.9796 72.9465 25.1235 75.0904C27.2476 77.2145 31.3887 76.9583 36.5296 74.8243C39.3849 87.4616 44.3493 95.8333 50.0001 95.8333C55.6509 95.8333 60.5755 87.5262 63.4357 74.9735C68.41 76.9732 72.4094 77.1647 74.4837 75.0904C76.6152 72.9565 76.3491 68.788 74.1852 63.6122C87.1782 60.7843 95.8334 55.7453 95.8334 50ZM54.758 52.1812C58.4415 54.4868 63.2268 58.1778 66.7038 61.6523C72.3149 67.2634 71.5091 68.7656 70.0864 70.1907C68.6613 71.6134 67.159 72.4192 61.548 66.8082C58.1107 63.3709 54.467 58.6478 52.1589 54.9793L50.0001 77.4035L47.8288 54.8649C45.5232 58.5434 41.8546 63.3013 38.3975 66.756C32.7889 72.367 31.2842 71.5612 29.8615 70.1385C28.4389 68.7134 27.6331 67.2111 33.2441 61.6001C36.7012 58.1429 41.4517 54.4744 45.1277 52.1713L22.5966 50L45.0208 47.8436C41.3523 45.533 36.6291 41.8894 33.1919 38.4521C27.5808 32.8411 28.3867 31.3388 29.8093 29.9137C31.232 28.491 32.7367 27.6852 38.3477 33.2962C41.8248 36.7733 45.5158 41.5586 47.8189 45.2445L50.0001 22.5965L52.1689 45.1276C54.4745 41.4516 58.143 36.7011 61.6002 33.244C67.2112 27.633 68.7135 28.4388 70.1361 29.8615C71.5613 31.2866 72.3671 32.7888 66.7561 38.3999C63.2989 41.857 58.541 45.5231 54.8625 47.8312L77.4011 50L54.758 52.1812Z" fill="black" style="fill:black;fill-opacity:1;"/>
</svg>
