<svg width="100" height="100" viewBox="0 0 100 100" fill="none" xmlns="http://www.w3.org/2000/svg">
<path d="M31.749 40.7906C28.966 26.8117 29.5587 15.2039 33.4549 10.4395C21.3796 3.91059 11.3552 2.13783 6.7466 6.74644C0.418115 13.0722 6.11774 29.6058 19.6374 47.6339C23.0744 45.2684 27.1626 42.9474 31.749 40.7906Z" fill="black" style="fill:black;fill-opacity:1;"/>
<path d="M10.4396 66.5446C3.91071 78.6199 2.13517 88.6442 6.74656 93.2556C13.0723 99.5813 29.6059 93.8817 47.634 80.362C45.2685 76.9278 42.9475 72.8369 40.7907 68.2533C26.8091 71.0363 15.2012 70.4407 10.4396 66.5446Z" fill="black" style="fill:black;fill-opacity:1;"/>
<path d="M68.2532 59.2108C71.0362 73.1897 70.4406 84.7948 66.5444 89.5592C78.6197 96.0881 88.644 97.8636 93.2554 93.255C99.5811 86.9265 93.8815 70.3956 80.3619 52.3647C76.9277 54.733 72.8367 57.054 68.2532 59.2108Z" fill="black" style="fill:black;fill-opacity:1;"/>
<path d="M89.5597 33.4546C96.0885 21.3792 97.864 11.355 93.2554 6.74635C86.9269 0.417858 70.396 6.1174 52.3651 19.6371C54.7306 23.0741 57.0517 27.1623 59.2085 31.7486C73.1902 28.9656 84.7952 29.5584 89.5597 33.4546Z" fill="black" style="fill:black;fill-opacity:1;"/>
<path d="M79.2182 40.704L51.7501 46.6178L40.7045 20.7807L46.6183 48.2486L20.7812 59.2943L48.2493 53.3804L59.2949 79.2176L53.3811 51.7496L79.2182 40.704Z" fill="black" style="fill:black;fill-opacity:1;"/>
</svg>
