<svg width="100" height="100" viewBox="0 0 100 100" fill="none" xmlns="http://www.w3.org/2000/svg">
<path d="M15.1003 49.9998C15.1003 46.9655 18.2715 44.1948 23.5069 42.0608C22.5469 40.5511 21.6714 39.0713 20.8855 37.6287C10.6782 40.5661 4.16675 45.0156 4.16675 49.9998C4.16675 54.9841 10.6184 59.3914 20.7436 62.3287C21.5246 60.8812 22.3952 59.3938 23.3527 57.8767C18.2068 55.7502 15.1003 53.0018 15.1003 49.9998Z" fill="black" style="fill:black;fill-opacity:1;"/>
<path d="M50.0003 15.0977C52.9724 15.0977 55.6933 18.137 57.8099 23.1809C59.3246 22.2035 60.8143 21.3131 62.2643 20.5122C59.327 10.5188 54.9248 4.16663 50.0003 4.16663C45.0757 4.16663 40.7928 10.3497 37.8554 20.1118C39.3254 20.9002 40.835 21.7832 42.377 22.7556C44.4662 17.9679 47.1151 15.0977 50.0003 15.0977Z" fill="black" style="fill:black;fill-opacity:1;"/>
<path d="M50.0002 84.9002C47.0678 84.9002 44.3767 81.938 42.2725 77.006C40.7404 77.9685 39.2382 78.844 37.7783 79.6249C40.7156 89.5363 45.1005 95.8337 50.0002 95.8337C54.8999 95.8337 59.4016 89.3696 62.3414 79.2245C60.8964 78.4311 59.4166 77.5457 57.9069 76.5757C55.7779 81.7639 53.0171 84.9002 50.0002 84.9002Z" fill="black" style="fill:black;fill-opacity:1;"/>
<path d="M95.8335 49.9998C95.8335 45.1374 89.6355 40.7849 79.856 37.8451C79.0527 39.31 78.1548 40.8122 77.1724 42.3443C82.0049 44.4385 84.9024 47.0998 84.9024 49.9998C84.9024 52.8998 82.0621 55.5039 77.324 57.5881C78.3065 59.1302 79.1993 60.6423 80.0002 62.1123C89.6976 59.1724 95.8335 54.8373 95.8335 49.9998Z" fill="black" style="fill:black;fill-opacity:1;"/>
<path d="M25.1259 25.7331C27.2275 23.6315 31.299 23.8553 36.3629 25.9271C36.8056 23.8752 37.3058 21.9324 37.8554 20.1118C28.8892 15.2991 21.4524 14.0062 18.0201 17.4384C14.5456 20.913 15.9161 28.5009 20.8855 37.6287C22.2435 37.2358 23.6684 36.8731 25.1508 36.5373C23.2431 31.6749 23.0864 27.7726 25.1259 25.7331Z" fill="black" style="fill:black;fill-opacity:1;"/>
<path d="M74.4838 25.733C76.5133 27.76 76.369 31.6325 74.4912 36.4551C76.3765 36.8729 78.1697 37.3377 79.856 37.8451C84.9224 28.6227 86.3426 20.9402 82.8407 17.4383C79.3139 13.914 71.5613 15.3713 62.2643 20.5122C62.7543 22.1736 63.202 23.9347 63.6049 25.7827C68.5021 23.8477 72.4344 23.6811 74.4838 25.733Z" fill="black" style="fill:black;fill-opacity:1;"/>
<path d="M74.4836 75.09C72.4093 77.1642 68.4125 76.9702 63.4357 74.9706C63.0999 76.4504 62.7319 77.8715 62.3414 79.2245C71.6061 84.3331 79.3237 85.7723 82.8405 82.2555C86.3101 78.7859 84.9496 71.2177 80.0002 62.1123C78.1821 62.6619 76.2396 63.164 74.1877 63.6117C76.349 68.785 76.6176 72.956 74.4836 75.09Z" fill="black" style="fill:black;fill-opacity:1;"/>
<path d="M25.1261 75.0908C22.9821 72.9444 23.2632 68.7436 25.4569 63.5305C23.8129 63.1649 22.2384 62.7639 20.7436 62.3287C15.8912 71.3372 14.5781 78.8141 18.0203 82.2563C21.4426 85.6762 28.8469 84.4053 37.7783 79.6249C37.3281 78.1053 36.9127 76.5011 36.5321 74.8222C31.3912 76.9587 27.2501 77.2124 25.1261 75.0908Z" fill="black" style="fill:black;fill-opacity:1;"/>
<path d="M63.3834 42.5985C64.4106 39.9621 64.4902 37.8456 63.3834 36.7388C62.2617 35.6171 60.1153 35.7091 57.4391 36.7661C55.8921 29.6753 53.1414 24.9522 50.0026 24.9522C46.8638 24.9522 44.0931 29.7076 42.5511 36.8432C39.7829 35.7116 37.5569 35.5897 36.4103 36.7388C35.2935 37.853 35.3805 39.9845 36.4227 42.6433C29.5258 44.2027 24.9568 46.9137 24.9568 50.0003C24.9568 53.0869 29.5979 55.8402 36.5893 57.3946C35.393 60.2424 35.2388 62.5381 36.4103 63.712C37.5693 64.871 39.8326 64.7317 42.6431 63.5653C44.2026 70.4721 46.916 75.0485 50.0026 75.0485C53.0891 75.0485 55.7827 70.5069 57.3447 63.6473C60.0656 64.7392 62.2493 64.8437 63.3834 63.712C64.5499 62.5455 64.4032 60.2673 63.2218 57.4394C70.3226 55.8924 75.0507 53.1391 75.0507 50.0003C75.0507 46.8615 70.3948 44.1505 63.386 42.5985H63.3834Z" fill="black" style="fill:black;fill-opacity:1;"/>
</svg>
