<svg width="100" height="100" viewBox="0 0 100 100" fill="none" xmlns="http://www.w3.org/2000/svg">
<path d="M82.6111 50.1913L60.2987 52.5389C60.4865 51.725 60.5887 50.8739 60.5887 50C60.5887 49.126 60.4865 48.2778 60.2987 47.461L82.6139 49.8086C85.2711 48.1407 87.5001 46.4557 89.0855 44.8163C98.079 35.5171 98.079 20.4402 89.0855 11.141C80.0921 1.84183 65.5108 1.84183 56.5173 11.141C54.5618 13.1631 52.526 16.2076 50.5373 19.8776L52.4543 39.3499C51.6671 39.1557 50.8439 39.05 49.9987 39.05C49.1535 39.05 48.3331 39.1557 47.5432 39.3499L49.4601 19.8776C47.4714 16.2076 45.4357 13.1631 43.4801 11.141C34.4866 1.84183 19.9053 1.84183 10.9119 11.141C1.91838 20.4402 1.91838 35.5171 10.9119 44.8163C12.5001 46.4585 14.7264 48.1436 17.3835 49.8086L39.6988 47.461C39.5109 48.2749 39.4087 49.126 39.4087 50C39.4087 50.8739 39.5109 51.7221 39.6988 52.5389L17.3863 50.1913C14.7264 51.8592 12.5001 53.5443 10.9146 55.1836C1.92114 64.4828 1.92114 79.5597 10.9146 88.8589C19.9081 98.1581 34.4894 98.1581 43.4829 88.8589C45.4384 86.8368 47.4741 83.7923 49.4629 80.1224L47.5459 60.65C48.3331 60.8442 49.1563 60.9499 50.0015 60.9499C50.8467 60.9499 51.6671 60.8442 52.457 60.65L50.5401 80.1224C52.5288 83.7923 54.5645 86.8368 56.5201 88.8589C65.5136 98.1581 80.0948 98.1581 89.0883 88.8589C98.0818 79.5597 98.0818 64.4828 89.0883 55.1836C87.5001 53.5414 85.2738 51.8564 82.6167 50.1913H82.6111ZM25.6451 24.8213L44.4441 40.6694C43.0326 41.569 41.8422 42.7999 40.9721 44.2594L25.6451 24.8213ZM25.6451 75.1757L40.9721 55.7377C41.8422 57.1971 43.0326 58.4281 44.4441 59.3277L25.6451 75.1757ZM74.3441 24.8213L59.0171 44.2594C58.147 42.7999 56.9565 41.569 55.5451 40.6694L74.3441 24.8213ZM55.5451 59.3277C56.9565 58.4281 58.147 57.1971 59.0171 55.7377L74.3441 75.1757L55.5451 59.3277Z" fill="black" style="fill:black;fill-opacity:1;"/>
</svg>
