<svg width="100" height="100" viewBox="0 0 100 100" fill="none" xmlns="http://www.w3.org/2000/svg">
<path d="M95.8309 50C95.8309 44.2994 87.3102 39.2977 74.4892 36.4574C76.367 31.6323 76.5112 27.7623 74.4818 25.7328C72.4324 23.6833 68.5003 23.85 63.6032 25.785C60.7729 12.807 55.739 4.16663 49.9988 4.16663C44.2586 4.16663 39.1875 12.8692 36.3621 25.9268C31.2984 23.855 27.2246 23.6311 25.1255 25.7328C23.086 27.7722 23.2402 31.6746 25.1503 36.537C12.5283 39.3922 4.16675 44.3516 4.16675 50C4.16675 55.6483 12.6626 60.6873 25.4562 63.5326C23.2626 68.7432 22.9816 72.9465 25.1255 75.0904C27.2494 77.2144 31.3904 76.9583 36.5312 74.8243C39.3839 87.4615 44.3482 95.8333 49.9988 95.8333C55.6495 95.8333 60.5739 87.5262 63.4341 74.9735C68.4108 76.9732 72.4075 77.1647 74.4818 75.0904C76.6157 72.9564 76.3471 68.7879 74.1858 63.6122C87.1783 60.7843 95.8334 55.7453 95.8334 50H95.8309ZM52.6973 52.701L49.9963 80.7487L47.2954 52.701L19.2485 50L47.2954 47.2989L49.9963 19.2512L52.6973 47.2989L80.7442 50L52.6973 52.701Z" fill="black" style="fill:black;fill-opacity:1;"/>
</svg>
