<svg width="100" height="100" viewBox="0 0 100 100" fill="none" xmlns="http://www.w3.org/2000/svg">
<g clip-path="url(#clip0_102_87)">
<path d="M49.938 50.062C49.938 50.062 51.589 74.042 37.815 87.815C24.041 101.588 0.0619788 99.938 0.0619788 99.938C0.0619788 99.938 -1.58902 75.958 12.185 62.185C25.959 48.412 49.938 50.062 49.938 50.062Z" fill="black" style="fill:black;fill-opacity:1;"/>
<path d="M99.938 0.0620103C99.938 0.0620103 101.589 24.042 87.815 37.815C74.041 51.588 50.062 49.938 50.062 49.938C50.062 49.938 48.411 25.958 62.185 12.185C75.959 -1.58799 99.938 0.0620103 99.938 0.0620103Z" fill="black" style="fill:black;fill-opacity:1;"/>
<path d="M49.9379 49.938C49.9379 49.938 25.9579 51.589 12.1849 37.815C-1.58811 24.041 0.0618883 0.0619788 0.0618883 0.0619788C0.0618883 0.0619788 24.0419 -1.58902 37.8149 12.185C51.5879 25.959 49.9379 49.938 49.9379 49.938Z" fill="black" style="fill:black;fill-opacity:1;"/>
<path d="M99.9379 99.938C99.9379 99.938 75.9579 101.589 62.1849 87.815C48.4119 74.041 50.0619 50.062 50.0619 50.062C50.0619 50.062 74.0419 48.411 87.8149 62.185C101.588 75.959 99.9379 99.938 99.9379 99.938Z" fill="black" style="fill:black;fill-opacity:1;"/>
</g>
<defs>
<clipPath id="clip0_102_87">
<rect width="100" height="100" fill="white" style="fill:white;fill-opacity:1;"/>
</clipPath>
</defs>
</svg>
