<svg width="100" height="100" viewBox="0 0 100 100" fill="none" xmlns="http://www.w3.org/2000/svg">
<g clip-path="url(#clip0_103_20)">
<path d="M80 0H0V80H80V0Z" fill="black" style="fill:black;fill-opacity:1;"/>
<path d="M22.3031 24.238C23.4734 24.238 24.4221 23.2893 24.4221 22.119C24.4221 20.9487 23.4734 20 22.3031 20C21.1328 20 20.1841 20.9487 20.1841 22.119C20.1841 23.2893 21.1328 24.238 22.3031 24.238Z" fill="#B7B7B7" style="fill:#B7B7B7;fill:color(display-p3 0.7159 0.7159 0.7159);fill-opacity:1;"/>
<path d="M33.1 24.238C34.2702 24.238 35.219 23.2893 35.219 22.119C35.219 20.9487 34.2702 20 33.1 20C31.9297 20 30.981 20.9487 30.981 22.119C30.981 23.2893 31.9297 24.238 33.1 24.238Z" fill="#B7B7B7" style="fill:#B7B7B7;fill:color(display-p3 0.7159 0.7159 0.7159);fill-opacity:1;"/>
<path d="M43.8971 24.238C45.0674 24.238 46.0161 23.2893 46.0161 22.119C46.0161 20.9487 45.0674 20 43.8971 20C42.7268 20 41.7781 20.9487 41.7781 22.119C41.7781 23.2893 42.7268 24.238 43.8971 24.238Z" fill="#B7B7B7" style="fill:#B7B7B7;fill:color(display-p3 0.7159 0.7159 0.7159);fill-opacity:1;"/>
<path d="M54.693 24.238C55.8633 24.238 56.812 23.2893 56.812 22.119C56.812 20.9487 55.8633 20 54.693 20C53.5227 20 52.574 20.9487 52.574 22.119C52.574 23.2893 53.5227 24.238 54.693 24.238Z" fill="#B7B7B7" style="fill:#B7B7B7;fill:color(display-p3 0.7159 0.7159 0.7159);fill-opacity:1;"/>
<path d="M65.4901 24.238C66.6604 24.238 67.6091 23.2893 67.6091 22.119C67.6091 20.9487 66.6604 20 65.4901 20C64.3198 20 63.3711 20.9487 63.3711 22.119C63.3711 23.2893 64.3198 24.238 65.4901 24.238Z" fill="#B7B7B7" style="fill:#B7B7B7;fill:color(display-p3 0.7159 0.7159 0.7159);fill-opacity:1;"/>
<path d="M76.287 24.238C77.4573 24.238 78.406 23.2893 78.406 22.119C78.406 20.9487 77.4573 20 76.287 20C75.1167 20 74.168 20.9487 74.168 22.119C74.168 23.2893 75.1167 24.238 76.287 24.238Z" fill="#B7B7B7" style="fill:#B7B7B7;fill:color(display-p3 0.7159 0.7159 0.7159);fill-opacity:1;"/>
<path d="M87.0841 24.238C88.2544 24.238 89.2031 23.2893 89.2031 22.119C89.2031 20.9487 88.2544 20 87.0841 20C85.9138 20 84.9651 20.9487 84.9651 22.119C84.9651 23.2893 85.9138 24.238 87.0841 24.238Z" fill="#B7B7B7" style="fill:#B7B7B7;fill:color(display-p3 0.7159 0.7159 0.7159);fill-opacity:1;"/>
<path d="M97.881 24.238C99.0512 24.238 100 23.2893 100 22.119C100 20.9487 99.0512 20 97.881 20C96.7107 20 95.762 20.9487 95.762 22.119C95.762 23.2893 96.7107 24.238 97.881 24.238Z" fill="#B7B7B7" style="fill:#B7B7B7;fill:color(display-p3 0.7159 0.7159 0.7159);fill-opacity:1;"/>
<path d="M22.3031 35.061C23.4734 35.061 24.4221 34.1123 24.4221 32.942C24.4221 31.7717 23.4734 30.823 22.3031 30.823C21.1328 30.823 20.1841 31.7717 20.1841 32.942C20.1841 34.1123 21.1328 35.061 22.3031 35.061Z" fill="#B7B7B7" style="fill:#B7B7B7;fill:color(display-p3 0.7159 0.7159 0.7159);fill-opacity:1;"/>
<path d="M33.1 35.061C34.2702 35.061 35.219 34.1123 35.219 32.942C35.219 31.7717 34.2702 30.823 33.1 30.823C31.9297 30.823 30.981 31.7717 30.981 32.942C30.981 34.1123 31.9297 35.061 33.1 35.061Z" fill="#B7B7B7" style="fill:#B7B7B7;fill:color(display-p3 0.7159 0.7159 0.7159);fill-opacity:1;"/>
<path d="M43.8971 35.061C45.0674 35.061 46.0161 34.1123 46.0161 32.942C46.0161 31.7717 45.0674 30.823 43.8971 30.823C42.7268 30.823 41.7781 31.7717 41.7781 32.942C41.7781 34.1123 42.7268 35.061 43.8971 35.061Z" fill="#B7B7B7" style="fill:#B7B7B7;fill:color(display-p3 0.7159 0.7159 0.7159);fill-opacity:1;"/>
<path d="M54.693 35.061C55.8633 35.061 56.812 34.1123 56.812 32.942C56.812 31.7717 55.8633 30.823 54.693 30.823C53.5227 30.823 52.574 31.7717 52.574 32.942C52.574 34.1123 53.5227 35.061 54.693 35.061Z" fill="#B7B7B7" style="fill:#B7B7B7;fill:color(display-p3 0.7159 0.7159 0.7159);fill-opacity:1;"/>
<path d="M65.4901 35.061C66.6604 35.061 67.6091 34.1123 67.6091 32.942C67.6091 31.7717 66.6604 30.823 65.4901 30.823C64.3198 30.823 63.3711 31.7717 63.3711 32.942C63.3711 34.1123 64.3198 35.061 65.4901 35.061Z" fill="#B7B7B7" style="fill:#B7B7B7;fill:color(display-p3 0.7159 0.7159 0.7159);fill-opacity:1;"/>
<path d="M76.287 35.061C77.4573 35.061 78.406 34.1123 78.406 32.942C78.406 31.7717 77.4573 30.823 76.287 30.823C75.1167 30.823 74.168 31.7717 74.168 32.942C74.168 34.1123 75.1167 35.061 76.287 35.061Z" fill="#B7B7B7" style="fill:#B7B7B7;fill:color(display-p3 0.7159 0.7159 0.7159);fill-opacity:1;"/>
<path d="M87.0841 35.061C88.2544 35.061 89.2031 34.1123 89.2031 32.942C89.2031 31.7717 88.2544 30.823 87.0841 30.823C85.9138 30.823 84.9651 31.7717 84.9651 32.942C84.9651 34.1123 85.9138 35.061 87.0841 35.061Z" fill="#B7B7B7" style="fill:#B7B7B7;fill:color(display-p3 0.7159 0.7159 0.7159);fill-opacity:1;"/>
<path d="M97.881 35.061C99.0512 35.061 100 34.1123 100 32.942C100 31.7717 99.0512 30.823 97.881 30.823C96.7107 30.823 95.762 31.7717 95.762 32.942C95.762 34.1123 96.7107 35.061 97.881 35.061Z" fill="#B7B7B7" style="fill:#B7B7B7;fill:color(display-p3 0.7159 0.7159 0.7159);fill-opacity:1;"/>
<path d="M22.3031 45.884C23.4734 45.884 24.4221 44.9353 24.4221 43.765C24.4221 42.5947 23.4734 41.646 22.3031 41.646C21.1328 41.646 20.1841 42.5947 20.1841 43.765C20.1841 44.9353 21.1328 45.884 22.3031 45.884Z" fill="#B7B7B7" style="fill:#B7B7B7;fill:color(display-p3 0.7159 0.7159 0.7159);fill-opacity:1;"/>
<path d="M33.1 45.884C34.2702 45.884 35.219 44.9353 35.219 43.765C35.219 42.5947 34.2702 41.646 33.1 41.646C31.9297 41.646 30.981 42.5947 30.981 43.765C30.981 44.9353 31.9297 45.884 33.1 45.884Z" fill="#B7B7B7" style="fill:#B7B7B7;fill:color(display-p3 0.7159 0.7159 0.7159);fill-opacity:1;"/>
<path d="M43.8971 45.884C45.0674 45.884 46.0161 44.9353 46.0161 43.765C46.0161 42.5947 45.0674 41.646 43.8971 41.646C42.7268 41.646 41.7781 42.5947 41.7781 43.765C41.7781 44.9353 42.7268 45.884 43.8971 45.884Z" fill="#B7B7B7" style="fill:#B7B7B7;fill:color(display-p3 0.7159 0.7159 0.7159);fill-opacity:1;"/>
<path d="M54.693 45.884C55.8633 45.884 56.812 44.9353 56.812 43.765C56.812 42.5947 55.8633 41.646 54.693 41.646C53.5227 41.646 52.574 42.5947 52.574 43.765C52.574 44.9353 53.5227 45.884 54.693 45.884Z" fill="#B7B7B7" style="fill:#B7B7B7;fill:color(display-p3 0.7159 0.7159 0.7159);fill-opacity:1;"/>
<path d="M65.4901 45.884C66.6604 45.884 67.6091 44.9353 67.6091 43.765C67.6091 42.5947 66.6604 41.646 65.4901 41.646C64.3198 41.646 63.3711 42.5947 63.3711 43.765C63.3711 44.9353 64.3198 45.884 65.4901 45.884Z" fill="#B7B7B7" style="fill:#B7B7B7;fill:color(display-p3 0.7159 0.7159 0.7159);fill-opacity:1;"/>
<path d="M76.287 45.884C77.4573 45.884 78.406 44.9353 78.406 43.765C78.406 42.5947 77.4573 41.646 76.287 41.646C75.1167 41.646 74.168 42.5947 74.168 43.765C74.168 44.9353 75.1167 45.884 76.287 45.884Z" fill="#B7B7B7" style="fill:#B7B7B7;fill:color(display-p3 0.7159 0.7159 0.7159);fill-opacity:1;"/>
<path d="M87.0841 45.884C88.2544 45.884 89.2031 44.9353 89.2031 43.765C89.2031 42.5947 88.2544 41.646 87.0841 41.646C85.9138 41.646 84.9651 42.5947 84.9651 43.765C84.9651 44.9353 85.9138 45.884 87.0841 45.884Z" fill="#B7B7B7" style="fill:#B7B7B7;fill:color(display-p3 0.7159 0.7159 0.7159);fill-opacity:1;"/>
<path d="M97.881 45.884C99.0512 45.884 100 44.9353 100 43.765C100 42.5947 99.0512 41.646 97.881 41.646C96.7107 41.646 95.762 42.5947 95.762 43.765C95.762 44.9353 96.7107 45.884 97.881 45.884Z" fill="#B7B7B7" style="fill:#B7B7B7;fill:color(display-p3 0.7159 0.7159 0.7159);fill-opacity:1;"/>
<path d="M22.3031 56.707C23.4734 56.707 24.4221 55.7583 24.4221 54.588C24.4221 53.4177 23.4734 52.469 22.3031 52.469C21.1328 52.469 20.1841 53.4177 20.1841 54.588C20.1841 55.7583 21.1328 56.707 22.3031 56.707Z" fill="#B7B7B7" style="fill:#B7B7B7;fill:color(display-p3 0.7159 0.7159 0.7159);fill-opacity:1;"/>
<path d="M33.1 56.707C34.2702 56.707 35.219 55.7583 35.219 54.588C35.219 53.4177 34.2702 52.469 33.1 52.469C31.9297 52.469 30.981 53.4177 30.981 54.588C30.981 55.7583 31.9297 56.707 33.1 56.707Z" fill="#B7B7B7" style="fill:#B7B7B7;fill:color(display-p3 0.7159 0.7159 0.7159);fill-opacity:1;"/>
<path d="M43.8971 56.707C45.0674 56.707 46.0161 55.7583 46.0161 54.588C46.0161 53.4177 45.0674 52.469 43.8971 52.469C42.7268 52.469 41.7781 53.4177 41.7781 54.588C41.7781 55.7583 42.7268 56.707 43.8971 56.707Z" fill="#B7B7B7" style="fill:#B7B7B7;fill:color(display-p3 0.7159 0.7159 0.7159);fill-opacity:1;"/>
<path d="M54.693 56.707C55.8633 56.707 56.812 55.7583 56.812 54.588C56.812 53.4177 55.8633 52.469 54.693 52.469C53.5227 52.469 52.574 53.4177 52.574 54.588C52.574 55.7583 53.5227 56.707 54.693 56.707Z" fill="#B7B7B7" style="fill:#B7B7B7;fill:color(display-p3 0.7159 0.7159 0.7159);fill-opacity:1;"/>
<path d="M65.4901 56.707C66.6604 56.707 67.6091 55.7583 67.6091 54.588C67.6091 53.4177 66.6604 52.469 65.4901 52.469C64.3198 52.469 63.3711 53.4177 63.3711 54.588C63.3711 55.7583 64.3198 56.707 65.4901 56.707Z" fill="#B7B7B7" style="fill:#B7B7B7;fill:color(display-p3 0.7159 0.7159 0.7159);fill-opacity:1;"/>
<path d="M76.287 56.707C77.4573 56.707 78.406 55.7583 78.406 54.588C78.406 53.4177 77.4573 52.469 76.287 52.469C75.1167 52.469 74.168 53.4177 74.168 54.588C74.168 55.7583 75.1167 56.707 76.287 56.707Z" fill="#B7B7B7" style="fill:#B7B7B7;fill:color(display-p3 0.7159 0.7159 0.7159);fill-opacity:1;"/>
<path d="M87.0841 56.707C88.2544 56.707 89.2031 55.7583 89.2031 54.588C89.2031 53.4177 88.2544 52.469 87.0841 52.469C85.9138 52.469 84.9651 53.4177 84.9651 54.588C84.9651 55.7583 85.9138 56.707 87.0841 56.707Z" fill="#B7B7B7" style="fill:#B7B7B7;fill:color(display-p3 0.7159 0.7159 0.7159);fill-opacity:1;"/>
<path d="M97.881 56.707C99.0512 56.707 100 55.7583 100 54.588C100 53.4177 99.0512 52.469 97.881 52.469C96.7107 52.469 95.762 53.4177 95.762 54.588C95.762 55.7583 96.7107 56.707 97.881 56.707Z" fill="#B7B7B7" style="fill:#B7B7B7;fill:color(display-p3 0.7159 0.7159 0.7159);fill-opacity:1;"/>
<path d="M22.3031 67.531C23.4734 67.531 24.4221 66.5823 24.4221 65.412C24.4221 64.2417 23.4734 63.293 22.3031 63.293C21.1328 63.293 20.1841 64.2417 20.1841 65.412C20.1841 66.5823 21.1328 67.531 22.3031 67.531Z" fill="#B7B7B7" style="fill:#B7B7B7;fill:color(display-p3 0.7159 0.7159 0.7159);fill-opacity:1;"/>
<path d="M33.1 67.531C34.2702 67.531 35.219 66.5823 35.219 65.412C35.219 64.2417 34.2702 63.293 33.1 63.293C31.9297 63.293 30.981 64.2417 30.981 65.412C30.981 66.5823 31.9297 67.531 33.1 67.531Z" fill="#B7B7B7" style="fill:#B7B7B7;fill:color(display-p3 0.7159 0.7159 0.7159);fill-opacity:1;"/>
<path d="M43.8971 67.531C45.0674 67.531 46.0161 66.5823 46.0161 65.412C46.0161 64.2417 45.0674 63.293 43.8971 63.293C42.7268 63.293 41.7781 64.2417 41.7781 65.412C41.7781 66.5823 42.7268 67.531 43.8971 67.531Z" fill="#B7B7B7" style="fill:#B7B7B7;fill:color(display-p3 0.7159 0.7159 0.7159);fill-opacity:1;"/>
<path d="M54.693 67.531C55.8633 67.531 56.812 66.5823 56.812 65.412C56.812 64.2417 55.8633 63.293 54.693 63.293C53.5227 63.293 52.574 64.2417 52.574 65.412C52.574 66.5823 53.5227 67.531 54.693 67.531Z" fill="#B7B7B7" style="fill:#B7B7B7;fill:color(display-p3 0.7159 0.7159 0.7159);fill-opacity:1;"/>
<path d="M65.4901 67.531C66.6604 67.531 67.6091 66.5823 67.6091 65.412C67.6091 64.2417 66.6604 63.293 65.4901 63.293C64.3198 63.293 63.3711 64.2417 63.3711 65.412C63.3711 66.5823 64.3198 67.531 65.4901 67.531Z" fill="#B7B7B7" style="fill:#B7B7B7;fill:color(display-p3 0.7159 0.7159 0.7159);fill-opacity:1;"/>
<path d="M76.287 67.531C77.4573 67.531 78.406 66.5823 78.406 65.412C78.406 64.2417 77.4573 63.293 76.287 63.293C75.1167 63.293 74.168 64.2417 74.168 65.412C74.168 66.5823 75.1167 67.531 76.287 67.531Z" fill="#B7B7B7" style="fill:#B7B7B7;fill:color(display-p3 0.7159 0.7159 0.7159);fill-opacity:1;"/>
<path d="M87.0841 67.531C88.2544 67.531 89.2031 66.5823 89.2031 65.412C89.2031 64.2417 88.2544 63.293 87.0841 63.293C85.9138 63.293 84.9651 64.2417 84.9651 65.412C84.9651 66.5823 85.9138 67.531 87.0841 67.531Z" fill="#B7B7B7" style="fill:#B7B7B7;fill:color(display-p3 0.7159 0.7159 0.7159);fill-opacity:1;"/>
<path d="M97.881 67.531C99.0512 67.531 100 66.5823 100 65.412C100 64.2417 99.0512 63.293 97.881 63.293C96.7107 63.293 95.762 64.2417 95.762 65.412C95.762 66.5823 96.7107 67.531 97.881 67.531Z" fill="#B7B7B7" style="fill:#B7B7B7;fill:color(display-p3 0.7159 0.7159 0.7159);fill-opacity:1;"/>
<path d="M22.3031 78.354C23.4734 78.354 24.4221 77.4053 24.4221 76.235C24.4221 75.0647 23.4734 74.116 22.3031 74.116C21.1328 74.116 20.1841 75.0647 20.1841 76.235C20.1841 77.4053 21.1328 78.354 22.3031 78.354Z" fill="#B7B7B7" style="fill:#B7B7B7;fill:color(display-p3 0.7159 0.7159 0.7159);fill-opacity:1;"/>
<path d="M33.1 78.354C34.2702 78.354 35.219 77.4053 35.219 76.235C35.219 75.0647 34.2702 74.116 33.1 74.116C31.9297 74.116 30.981 75.0647 30.981 76.235C30.981 77.4053 31.9297 78.354 33.1 78.354Z" fill="#B7B7B7" style="fill:#B7B7B7;fill:color(display-p3 0.7159 0.7159 0.7159);fill-opacity:1;"/>
<path d="M43.8971 78.354C45.0674 78.354 46.0161 77.4053 46.0161 76.235C46.0161 75.0647 45.0674 74.116 43.8971 74.116C42.7268 74.116 41.7781 75.0647 41.7781 76.235C41.7781 77.4053 42.7268 78.354 43.8971 78.354Z" fill="#B7B7B7" style="fill:#B7B7B7;fill:color(display-p3 0.7159 0.7159 0.7159);fill-opacity:1;"/>
<path d="M54.693 78.354C55.8633 78.354 56.812 77.4053 56.812 76.235C56.812 75.0647 55.8633 74.116 54.693 74.116C53.5227 74.116 52.574 75.0647 52.574 76.235C52.574 77.4053 53.5227 78.354 54.693 78.354Z" fill="#B7B7B7" style="fill:#B7B7B7;fill:color(display-p3 0.7159 0.7159 0.7159);fill-opacity:1;"/>
<path d="M65.4901 78.354C66.6604 78.354 67.6091 77.4053 67.6091 76.235C67.6091 75.0647 66.6604 74.116 65.4901 74.116C64.3198 74.116 63.3711 75.0647 63.3711 76.235C63.3711 77.4053 64.3198 78.354 65.4901 78.354Z" fill="#B7B7B7" style="fill:#B7B7B7;fill:color(display-p3 0.7159 0.7159 0.7159);fill-opacity:1;"/>
<path d="M76.287 78.354C77.4573 78.354 78.406 77.4053 78.406 76.235C78.406 75.0647 77.4573 74.116 76.287 74.116C75.1167 74.116 74.168 75.0647 74.168 76.235C74.168 77.4053 75.1167 78.354 76.287 78.354Z" fill="#B7B7B7" style="fill:#B7B7B7;fill:color(display-p3 0.7159 0.7159 0.7159);fill-opacity:1;"/>
<path d="M87.0841 78.354C88.2544 78.354 89.2031 77.4053 89.2031 76.235C89.2031 75.0647 88.2544 74.116 87.0841 74.116C85.9138 74.116 84.9651 75.0647 84.9651 76.235C84.9651 77.4053 85.9138 78.354 87.0841 78.354Z" fill="#B7B7B7" style="fill:#B7B7B7;fill:color(display-p3 0.7159 0.7159 0.7159);fill-opacity:1;"/>
<path d="M97.881 78.354C99.0512 78.354 100 77.4053 100 76.235C100 75.0647 99.0512 74.116 97.881 74.116C96.7107 74.116 95.762 75.0647 95.762 76.235C95.762 77.4053 96.7107 78.354 97.881 78.354Z" fill="#B7B7B7" style="fill:#B7B7B7;fill:color(display-p3 0.7159 0.7159 0.7159);fill-opacity:1;"/>
<path d="M22.3031 89.177C23.4734 89.177 24.4221 88.2283 24.4221 87.058C24.4221 85.8877 23.4734 84.939 22.3031 84.939C21.1328 84.939 20.1841 85.8877 20.1841 87.058C20.1841 88.2283 21.1328 89.177 22.3031 89.177Z" fill="#B7B7B7" style="fill:#B7B7B7;fill:color(display-p3 0.7159 0.7159 0.7159);fill-opacity:1;"/>
<path d="M33.1 89.177C34.2702 89.177 35.219 88.2283 35.219 87.058C35.219 85.8877 34.2702 84.939 33.1 84.939C31.9297 84.939 30.981 85.8877 30.981 87.058C30.981 88.2283 31.9297 89.177 33.1 89.177Z" fill="#B7B7B7" style="fill:#B7B7B7;fill:color(display-p3 0.7159 0.7159 0.7159);fill-opacity:1;"/>
<path d="M43.8971 89.177C45.0674 89.177 46.0161 88.2283 46.0161 87.058C46.0161 85.8877 45.0674 84.939 43.8971 84.939C42.7268 84.939 41.7781 85.8877 41.7781 87.058C41.7781 88.2283 42.7268 89.177 43.8971 89.177Z" fill="#B7B7B7" style="fill:#B7B7B7;fill:color(display-p3 0.7159 0.7159 0.7159);fill-opacity:1;"/>
<path d="M54.693 89.177C55.8633 89.177 56.812 88.2283 56.812 87.058C56.812 85.8877 55.8633 84.939 54.693 84.939C53.5227 84.939 52.574 85.8877 52.574 87.058C52.574 88.2283 53.5227 89.177 54.693 89.177Z" fill="#B7B7B7" style="fill:#B7B7B7;fill:color(display-p3 0.7159 0.7159 0.7159);fill-opacity:1;"/>
<path d="M65.4901 89.177C66.6604 89.177 67.6091 88.2283 67.6091 87.058C67.6091 85.8877 66.6604 84.939 65.4901 84.939C64.3198 84.939 63.3711 85.8877 63.3711 87.058C63.3711 88.2283 64.3198 89.177 65.4901 89.177Z" fill="#B7B7B7" style="fill:#B7B7B7;fill:color(display-p3 0.7159 0.7159 0.7159);fill-opacity:1;"/>
<path d="M76.287 89.177C77.4573 89.177 78.406 88.2283 78.406 87.058C78.406 85.8877 77.4573 84.939 76.287 84.939C75.1167 84.939 74.168 85.8877 74.168 87.058C74.168 88.2283 75.1167 89.177 76.287 89.177Z" fill="#B7B7B7" style="fill:#B7B7B7;fill:color(display-p3 0.7159 0.7159 0.7159);fill-opacity:1;"/>
<path d="M87.0841 89.177C88.2544 89.177 89.2031 88.2283 89.2031 87.058C89.2031 85.8877 88.2544 84.939 87.0841 84.939C85.9138 84.939 84.9651 85.8877 84.9651 87.058C84.9651 88.2283 85.9138 89.177 87.0841 89.177Z" fill="#B7B7B7" style="fill:#B7B7B7;fill:color(display-p3 0.7159 0.7159 0.7159);fill-opacity:1;"/>
<path d="M97.881 89.177C99.0512 89.177 100 88.2283 100 87.058C100 85.8877 99.0512 84.939 97.881 84.939C96.7107 84.939 95.762 85.8877 95.762 87.058C95.762 88.2283 96.7107 89.177 97.881 89.177Z" fill="#B7B7B7" style="fill:#B7B7B7;fill:color(display-p3 0.7159 0.7159 0.7159);fill-opacity:1;"/>
<path d="M22.3031 100C23.4734 100 24.4221 99.0512 24.4221 97.881C24.4221 96.7107 23.4734 95.762 22.3031 95.762C21.1328 95.762 20.1841 96.7107 20.1841 97.881C20.1841 99.0512 21.1328 100 22.3031 100Z" fill="#B7B7B7" style="fill:#B7B7B7;fill:color(display-p3 0.7159 0.7159 0.7159);fill-opacity:1;"/>
<path d="M33.1 100C34.2702 100 35.219 99.0512 35.219 97.881C35.219 96.7107 34.2702 95.762 33.1 95.762C31.9297 95.762 30.981 96.7107 30.981 97.881C30.981 99.0512 31.9297 100 33.1 100Z" fill="#B7B7B7" style="fill:#B7B7B7;fill:color(display-p3 0.7159 0.7159 0.7159);fill-opacity:1;"/>
<path d="M43.8971 100C45.0674 100 46.0161 99.0512 46.0161 97.881C46.0161 96.7107 45.0674 95.762 43.8971 95.762C42.7268 95.762 41.7781 96.7107 41.7781 97.881C41.7781 99.0512 42.7268 100 43.8971 100Z" fill="#B7B7B7" style="fill:#B7B7B7;fill:color(display-p3 0.7159 0.7159 0.7159);fill-opacity:1;"/>
<path d="M54.693 100C55.8633 100 56.812 99.0512 56.812 97.881C56.812 96.7107 55.8633 95.762 54.693 95.762C53.5227 95.762 52.574 96.7107 52.574 97.881C52.574 99.0512 53.5227 100 54.693 100Z" fill="#B7B7B7" style="fill:#B7B7B7;fill:color(display-p3 0.7159 0.7159 0.7159);fill-opacity:1;"/>
<path d="M65.4901 100C66.6604 100 67.6091 99.0512 67.6091 97.881C67.6091 96.7107 66.6604 95.762 65.4901 95.762C64.3198 95.762 63.3711 96.7107 63.3711 97.881C63.3711 99.0512 64.3198 100 65.4901 100Z" fill="#B7B7B7" style="fill:#B7B7B7;fill:color(display-p3 0.7159 0.7159 0.7159);fill-opacity:1;"/>
<path d="M76.287 100C77.4573 100 78.406 99.0512 78.406 97.881C78.406 96.7107 77.4573 95.762 76.287 95.762C75.1167 95.762 74.168 96.7107 74.168 97.881C74.168 99.0512 75.1167 100 76.287 100Z" fill="#B7B7B7" style="fill:#B7B7B7;fill:color(display-p3 0.7159 0.7159 0.7159);fill-opacity:1;"/>
<path d="M87.0841 100C88.2544 100 89.2031 99.0512 89.2031 97.881C89.2031 96.7107 88.2544 95.762 87.0841 95.762C85.9138 95.762 84.9651 96.7107 84.9651 97.881C84.9651 99.0512 85.9138 100 87.0841 100Z" fill="#B7B7B7" style="fill:#B7B7B7;fill:color(display-p3 0.7159 0.7159 0.7159);fill-opacity:1;"/>
<path d="M97.881 100C99.0512 100 100 99.0512 100 97.881C100 96.7107 99.0512 95.762 97.881 95.762C96.7107 95.762 95.762 96.7107 95.762 97.881C95.762 99.0512 96.7107 100 97.881 100Z" fill="#B7B7B7" style="fill:#B7B7B7;fill:color(display-p3 0.7159 0.7159 0.7159);fill-opacity:1;"/>
</g>
<defs>
<clipPath id="clip0_103_20">
<rect width="100" height="100" fill="white" style="fill:white;fill-opacity:1;"/>
</clipPath>
</defs>
</svg>
