<svg width="100" height="100" viewBox="0 0 100 100" fill="none" xmlns="http://www.w3.org/2000/svg">
<g clip-path="url(#clip0_103_14)">
<path d="M40 80C62.0914 80 80 62.0914 80 40C80 17.9086 62.0914 0 40 0C17.9086 0 0 17.9086 0 40C0 62.0914 17.9086 80 40 80Z" fill="black" style="fill:black;fill-opacity:1;"/>
<path d="M62.8319 90.83H62.7319C62.2015 90.83 61.6928 90.6193 61.3177 90.2442C60.9426 89.8691 60.7319 89.3604 60.7319 88.83C60.7319 88.2996 60.9426 87.7908 61.3177 87.4158C61.6928 87.0407 62.2015 86.83 62.7319 86.83H62.8319C63.3623 86.83 63.871 87.0407 64.2461 87.4158C64.6212 87.7908 64.8319 88.2996 64.8319 88.83C64.8319 89.3604 64.6212 89.8691 64.2461 90.2442C63.871 90.6193 63.3623 90.83 62.8319 90.83ZM52.9809 88.922C52.7194 88.9216 52.4605 88.87 52.2189 88.77L52.1359 88.735C51.8797 88.6457 51.6444 88.5053 51.4442 88.3222C51.2441 88.1391 51.0832 87.9172 50.9715 87.67C50.8598 87.4228 50.7995 87.1555 50.7944 86.8843C50.7892 86.6131 50.8393 86.3436 50.9416 86.0924C51.0439 85.8411 51.1962 85.6133 51.3893 85.4228C51.5823 85.2322 51.8122 85.083 52.0648 84.9841C52.3174 84.8852 52.5874 84.8387 52.8586 84.8474C53.1297 84.8562 53.3962 84.92 53.6419 85.035L53.7419 85.077C54.1707 85.2531 54.525 85.5727 54.7442 85.9812C54.9634 86.3897 55.0339 86.8616 54.9437 87.3163C54.8535 87.771 54.6081 88.1802 54.2495 88.474C53.891 88.7678 53.4415 88.9279 52.9779 88.927L52.9809 88.922ZM72.5749 88.885C72.1121 88.8862 71.6632 88.727 71.3047 88.4343C70.9462 88.1417 70.7003 87.7337 70.6089 87.2801C70.5175 86.8264 70.5862 86.3551 70.8034 85.9464C71.0206 85.5378 71.3727 85.2171 71.7999 85.039L71.8999 85C72.1428 84.8997 72.4032 84.8483 72.666 84.8486C72.9288 84.849 73.189 84.9011 73.4317 85.002C73.6743 85.1029 73.8948 85.2506 74.0804 85.4366C74.266 85.6227 74.4131 85.8435 74.5134 86.0865C74.6137 86.3294 74.6651 86.5898 74.6647 86.8526C74.6644 87.1154 74.6123 87.3756 74.5114 87.6183C74.4105 87.8609 74.2628 88.0814 74.0767 88.267C73.8907 88.4526 73.6698 88.5997 73.4269 88.7L72.6639 86.852L73.3449 88.735C73.1006 88.8352 72.8389 88.8862 72.5749 88.885V88.885ZM44.6119 83.385C44.0882 83.3856 43.5853 83.1801 43.2119 82.813L43.1689 82.771C42.7897 82.3975 42.5732 81.8895 42.5665 81.3574C42.5598 80.8252 42.7633 80.3119 43.1329 79.929C43.3139 79.7412 43.5302 79.591 43.7695 79.4871C44.0087 79.3832 44.2661 79.3277 44.5269 79.3237C44.7877 79.3197 45.0468 79.3673 45.2891 79.4638C45.5314 79.5603 45.7522 79.7038 45.9389 79.886L46.0109 79.956C46.2948 80.234 46.4895 80.5904 46.5701 80.9795C46.6507 81.3687 46.6135 81.773 46.4632 82.141C46.313 82.5089 46.0566 82.8237 45.7267 83.0453C45.3968 83.2669 45.0083 83.3851 44.6109 83.385H44.6119ZM80.9199 83.315C80.5281 83.3146 80.145 83.1992 79.8182 82.983C79.4915 82.7669 79.2354 82.4595 79.0818 82.099C78.9282 81.7386 78.8838 81.3409 78.9543 80.9555C79.0247 80.5701 79.2068 80.2138 79.4779 79.931L79.5779 79.831C79.9551 79.4667 80.4603 79.2651 80.9847 79.2696C81.5091 79.2742 82.0107 79.4845 82.3815 79.8554C82.7523 80.2262 82.9627 80.7278 82.9672 81.2522C82.9718 81.7766 82.7702 82.2818 82.4059 82.659L82.3639 82.701C82.1774 82.8959 81.9532 83.0509 81.705 83.1566C81.4568 83.2623 81.1897 83.3166 80.9199 83.316V83.315ZM38.9819 75.082C38.5876 75.082 38.202 74.9654 37.8737 74.7469C37.5455 74.5284 37.2891 74.2178 37.1369 73.854L38.9809 73.081L37.0999 73.767C36.9937 73.5243 36.9368 73.263 36.9325 72.9982C36.9281 72.7334 36.9764 72.4704 37.0745 72.2244C37.1726 71.9784 37.3187 71.7543 37.5041 71.5652C37.6895 71.3761 37.9106 71.2256 38.1546 71.1227C38.3986 71.0197 38.6607 70.9662 38.9255 70.9653C39.1904 70.9645 39.4528 71.0162 39.6975 71.1175C39.9422 71.2189 40.1643 71.3678 40.351 71.5557C40.5376 71.7436 40.6851 71.9666 40.7849 72.212L40.8249 72.312C40.9524 72.6159 41.0029 72.9466 40.9718 73.2748C40.9407 73.6029 40.829 73.9182 40.6466 74.1928C40.4642 74.4673 40.2168 74.6925 39.9264 74.8483C39.6359 75.0042 39.3115 75.0858 38.9819 75.086V75.082ZM86.5199 74.991C86.2445 74.9918 85.972 74.9349 85.7199 74.824C85.2348 74.6059 84.8541 74.2067 84.6593 73.7118C84.4644 73.2168 84.4708 72.6653 84.6771 72.175C84.8833 71.6847 85.2731 71.2944 85.7631 71.0876C86.2532 70.8808 86.8047 70.8737 87.2999 71.068C87.543 71.1637 87.7648 71.3067 87.9523 71.4886C88.1399 71.6704 88.2896 71.8877 88.3928 72.1277C88.496 72.3678 88.5507 72.6259 88.5536 72.8871C88.5565 73.1484 88.5077 73.4077 88.4099 73.65L88.3509 73.789C88.1957 74.1457 87.9398 74.4494 87.6146 74.6629C87.2893 74.8764 86.9089 74.9904 86.5199 74.991ZM36.9559 65.206C36.6983 65.2117 36.4421 65.1665 36.202 65.0729C35.962 64.9794 35.7427 64.8394 35.5569 64.6609C35.3711 64.4824 35.2223 64.269 35.1192 64.0329C35.0161 63.7968 34.9606 63.5426 34.9559 63.285V63.221C34.951 62.6892 35.1559 62.177 35.5262 61.7953C35.8965 61.4137 36.4022 61.1933 36.9339 61.182H36.9569C37.4798 61.1761 37.9837 61.3775 38.3585 61.7422C38.7333 62.1069 38.9485 62.6051 38.9569 63.128C38.9662 63.6635 38.765 64.1812 38.3966 64.57C38.0283 64.9587 37.5221 65.1874 36.9869 65.207L36.9559 65.206ZM88.5049 65.155C87.9745 65.155 87.4658 64.9443 87.0907 64.5692C86.7156 64.1941 86.5049 63.6854 86.5049 63.155C86.5049 63.091 86.5049 63.027 86.5139 62.965C86.5229 62.903 86.5039 62.846 86.5029 62.785C86.4936 62.2495 86.6948 61.7318 87.0632 61.343C87.4315 60.9543 87.9377 60.7256 88.4729 60.706C88.7334 60.6937 88.9938 60.7342 89.2382 60.8251C89.4827 60.9159 89.7063 61.0552 89.8957 61.2346C90.085 61.4141 90.2361 61.6299 90.3399 61.8691C90.4437 62.1084 90.4982 62.3662 90.4999 62.627V62.727C90.4999 62.782 90.4999 62.838 90.4999 62.893C90.4999 62.948 90.5059 63.001 90.5059 63.056V63.156C90.5058 63.4186 90.4539 63.6787 90.3533 63.9213C90.2526 64.1639 90.1052 64.3843 89.9194 64.5699C89.7336 64.7555 89.513 64.9027 89.2703 65.0031C89.0276 65.1035 88.7675 65.1551 88.5049 65.155ZM38.8279 55.4C38.57 55.4002 38.3145 55.35 38.0759 55.252C37.5859 55.0523 37.195 54.6665 36.9888 54.1792C36.7827 53.6919 36.778 53.1427 36.9759 52.652L37.0109 52.564C37.1094 52.3204 37.2549 52.0986 37.4391 51.9112C37.6233 51.7238 37.8426 51.5746 38.0845 51.472C38.3264 51.3694 38.5862 51.3154 38.8489 51.3132C39.1117 51.311 39.3723 51.3605 39.6159 51.459C39.8595 51.5575 40.0813 51.703 40.2687 51.8872C40.456 52.0714 40.6053 52.2907 40.7079 52.5326C40.8105 52.7745 40.8645 53.0343 40.8667 53.297C40.8689 53.5598 40.8194 53.8204 40.7209 54.064L40.6819 54.164C40.5303 54.5307 40.2731 54.844 39.943 55.0641C39.6128 55.2842 39.2247 55.4011 38.8279 55.4ZM86.4449 54.939C86.051 54.9393 85.6658 54.8233 85.3376 54.6056C85.0093 54.3878 84.7527 54.078 84.5999 53.715C84.3902 53.2242 84.3812 52.6708 84.5746 52.1734C84.7681 51.676 85.1487 51.2741 85.6349 51.054C85.8706 50.947 86.1252 50.8878 86.3839 50.8798C86.6426 50.8719 86.9004 50.9154 87.1422 51.0077C87.384 51.1001 87.6051 51.2395 87.7927 51.4179C87.9802 51.5963 88.1305 51.8101 88.2349 52.047C88.2349 52.054 88.2809 52.153 88.2839 52.16C88.49 52.6487 88.4937 53.1992 88.2939 53.6905C88.0942 54.1819 87.7075 54.5737 87.2189 54.78C86.9741 54.8842 86.7109 54.9379 86.4449 54.938V54.939ZM44.3319 47.009C43.9363 47.0091 43.5496 46.8919 43.2206 46.6722C42.8916 46.4525 42.6352 46.1402 42.4837 45.7748C42.3323 45.4093 42.2926 45.0072 42.3697 44.6192C42.4468 44.2312 42.6372 43.8748 42.9169 43.595L44.3319 45.009L42.9449 43.566C43.3085 43.1797 43.8107 42.9537 44.3409 42.9376C44.8712 42.9216 45.3861 43.1169 45.7724 43.4805C46.1587 43.8441 46.3847 44.3463 46.4007 44.8765C46.4168 45.4068 46.2215 45.9217 45.8579 46.308L45.7459 46.423C45.3707 46.7977 44.8621 47.0081 44.3319 47.008V47.009ZM80.7799 46.656C80.2713 46.657 79.7817 46.4631 79.4119 46.114C79.4009 46.105 79.3189 46.025 79.3119 46.014C78.9329 45.6427 78.7169 45.136 78.7115 44.6055C78.706 44.075 78.9116 43.564 79.2829 43.185C79.6542 42.806 80.1608 42.59 80.6914 42.5846C81.2219 42.5791 81.7329 42.7847 82.1119 43.156L80.7119 44.585L82.1489 43.2C82.4412 43.4744 82.6442 43.8304 82.7317 44.2216C82.8192 44.6129 82.787 45.0214 82.6394 45.3942C82.4919 45.767 82.2357 46.0868 81.9041 46.3121C81.5725 46.5375 81.1808 46.658 80.7799 46.658V46.656ZM52.6249 41.339C52.1639 41.339 51.717 41.1798 51.3599 40.8883C51.0028 40.5967 50.7574 40.1908 50.6652 39.7391C50.5729 39.2874 50.6396 38.8177 50.8538 38.4095C51.0681 38.0013 51.4168 37.6797 51.8409 37.499L51.8559 37.493C52.344 37.2869 52.8932 37.2792 53.3869 37.4715C53.8806 37.6638 54.2798 38.041 54.4999 38.523C54.7155 38.9966 54.7343 39.5364 54.5523 40.0239C54.3702 40.5114 54.0022 40.9067 53.5289 41.123L53.3989 41.18C53.154 41.2837 52.8909 41.3377 52.6249 41.339ZM72.3889 41.153C72.1458 41.1526 71.9049 41.1078 71.6779 41.021L71.5429 40.968C71.2951 40.8723 71.0689 40.7282 70.8774 40.5442C70.6859 40.3601 70.533 40.1398 70.4276 39.896C70.3222 39.6522 70.2664 39.3899 70.2635 39.1243C70.2605 38.8587 70.3105 38.5952 70.4106 38.3491C70.5106 38.1031 70.6586 37.8794 70.846 37.6912C71.0334 37.503 71.2564 37.354 71.502 37.2528C71.7476 37.1517 72.0109 37.1006 72.2765 37.1023C72.542 37.104 72.8046 37.1587 73.0489 37.263L73.1019 37.283C73.5397 37.449 73.9053 37.7634 74.1351 38.1713C74.3649 38.5793 74.4443 39.0549 74.3595 39.5154C74.2747 39.9758 74.031 40.3919 73.6709 40.6912C73.3108 40.9904 72.8571 41.1539 72.3889 41.153ZM62.4309 39.284C61.9005 39.284 61.3918 39.0733 61.0167 38.6982C60.6416 38.3231 60.4309 37.8144 60.4309 37.284C60.4309 36.7536 60.6416 36.2448 61.0167 35.8698C61.3918 35.4947 61.9005 35.284 62.4309 35.284V37.284L62.4739 35.284H62.5199C63.0503 35.2748 63.5627 35.4768 63.9442 35.8454C64.3258 36.214 64.5452 36.7191 64.5544 37.2495C64.5635 37.7799 64.3616 38.2923 63.993 38.6738C63.6244 39.0553 63.1193 39.2748 62.5889 39.284H62.4309Z" fill="#B7B7B7" style="fill:#B7B7B7;fill:color(display-p3 0.7159 0.7159 0.7159);fill-opacity:1;"/>
<path d="M67.5351 100C67.0253 99.9997 66.5348 99.8046 66.1639 99.4548C65.7931 99.1049 65.5698 98.6266 65.5398 98.1177C65.5098 97.6087 65.6753 97.1075 66.0025 96.7165C66.3297 96.3255 66.7938 96.0742 67.3001 96.014C67.827 95.9377 68.3628 96.0718 68.7916 96.3872C69.2205 96.7027 69.508 97.1743 69.5921 97.7C69.6329 97.9583 69.622 98.2221 69.5602 98.4763C69.4984 98.7304 69.3869 98.9697 69.2321 99.1805C69.0773 99.3913 68.8823 99.5693 68.6583 99.7043C68.4343 99.8393 68.1858 99.9286 67.9271 99.967L67.7741 99.988C67.6947 99.9964 67.6149 100 67.5351 100V100ZM57.5731 99.949C57.4761 99.9488 57.3792 99.9418 57.2831 99.928L57.1831 99.913C56.9233 99.8742 56.6737 99.7846 56.4485 99.6493C56.2233 99.514 56.0269 99.3357 55.8707 99.1245C55.7144 98.9134 55.6012 98.6735 55.5376 98.4186C55.4741 98.1637 55.4613 97.8988 55.5001 97.639C55.5389 97.3792 55.6285 97.1295 55.7638 96.9043C55.8991 96.6791 56.0774 96.4828 56.2886 96.3265C56.4997 96.1702 56.7396 96.0571 56.9945 95.9935C57.2494 95.9299 57.5143 95.9172 57.7741 95.956C58.3041 96.0323 58.7829 96.3137 59.1074 96.7395C59.4319 97.1654 59.5762 97.7018 59.5091 98.233C59.4486 98.7048 59.2191 99.1387 58.8631 99.4543C58.5071 99.7698 58.0488 99.9456 57.5731 99.949V99.949ZM77.2101 97.227C76.7522 97.2278 76.3079 97.0715 75.9514 96.7842C75.5949 96.4968 75.3478 96.0959 75.2514 95.6483C75.1549 95.2007 75.215 94.7335 75.4215 94.3249C75.628 93.9162 75.9685 93.5908 76.3861 93.403C76.8736 93.1811 77.4288 93.1593 77.9322 93.3424C78.4355 93.5255 78.847 93.8988 79.0781 94.382C79.1901 94.6166 79.2543 94.8712 79.2669 95.1309C79.2795 95.3905 79.2403 95.6501 79.1515 95.8945C79.0626 96.1388 78.9261 96.3631 78.7497 96.5541C78.5733 96.7451 78.3606 96.899 78.1241 97.007L78.0331 97.048C77.7747 97.1657 77.4941 97.2267 77.2101 97.227V97.227ZM47.9171 97.076C47.6372 97.0761 47.3605 97.0157 47.1061 96.899L46.9671 96.836C46.5419 96.6054 46.2155 96.2275 46.0492 95.7733C45.883 95.3191 45.8883 94.8198 46.0641 94.3692C46.24 93.9186 46.5744 93.5477 47.0044 93.3263C47.4344 93.1048 47.9305 93.048 48.3995 93.1664C48.8684 93.2849 49.278 93.5706 49.5512 93.9697C49.8245 94.3688 49.9426 94.854 49.8833 95.334C49.8241 95.8141 49.5916 96.256 49.2296 96.5768C48.8675 96.8975 48.4008 97.075 47.9171 97.076V97.076ZM85.7001 91.812C85.2978 91.8106 84.9052 91.6879 84.5736 91.4599C84.2421 91.232 83.9871 90.9093 83.8418 90.5341C83.6965 90.1589 83.6678 89.7486 83.7594 89.3568C83.851 88.965 84.0586 88.6099 84.3551 88.338L84.4781 88.231C84.6781 88.0577 84.9104 87.9259 85.1617 87.8431C85.413 87.7602 85.6783 87.7281 85.9421 87.7485C86.2059 87.7689 86.463 87.8415 86.6985 87.962C86.9341 88.0825 87.1434 88.2485 87.3144 88.4505C87.4853 88.6524 87.6144 88.8863 87.6944 89.1385C87.7743 89.3908 87.8033 89.6563 87.7799 89.9199C87.7564 90.1834 87.6809 90.4397 87.5577 90.6739C87.4345 90.908 87.266 91.1154 87.0621 91.284L85.7701 89.758L87.0321 91.311C86.6638 91.6343 86.1902 91.8124 85.7001 91.812V91.812ZM39.4891 91.587C38.9944 91.5868 38.5174 91.4033 38.1501 91.072L39.4901 89.587L38.1211 91.045C37.7309 90.698 37.4919 90.2122 37.4551 89.6914C37.4183 89.1705 37.5867 88.6559 37.9242 88.2576C38.2617 87.8592 38.7417 87.6086 39.2615 87.5594C39.7813 87.5101 40.2998 87.6661 40.7061 87.994L40.8291 88.102C41.1293 88.3728 41.3404 88.7283 41.4345 89.1216C41.5286 89.5148 41.5013 89.9273 41.3562 90.3048C41.2111 90.6822 40.955 91.0067 40.6216 91.2356C40.2883 91.4645 39.8935 91.587 39.4891 91.587V91.587ZM92.3201 84.248C91.9594 84.2472 91.6057 84.1489 91.2963 83.9635C90.9869 83.7781 90.7335 83.5125 90.5627 83.1948C90.392 82.8771 90.3103 82.5191 90.3264 82.1588C90.3425 81.7985 90.4557 81.4492 90.6541 81.148C90.9458 80.7021 91.4002 80.3879 91.9204 80.2725C92.4405 80.157 92.9852 80.2494 93.4381 80.53C93.6581 80.6661 93.849 80.8444 93.9996 81.0548C94.1502 81.2651 94.2577 81.5032 94.3157 81.7553C94.3737 82.0074 94.3812 82.2685 94.3377 82.5235C94.2941 82.7785 94.2005 83.0224 94.0621 83.241C94.0621 83.251 93.9971 83.341 93.9911 83.353C93.8087 83.6282 93.561 83.8539 93.2701 84.0101C92.9793 84.1662 92.6543 84.248 92.3241 84.248H92.3201ZM32.9201 83.938C32.5869 83.9386 32.2591 83.8549 31.967 83.6945C31.675 83.5342 31.4283 83.3025 31.2501 83.021L31.2291 82.989C30.9446 82.5413 30.8466 82 30.9562 81.4811C31.0657 80.9621 31.374 80.5065 31.8151 80.212C32.0305 80.0677 32.2723 79.9673 32.5267 79.9167C32.781 79.8662 33.0428 79.8663 33.297 79.9173C33.5513 79.9682 33.7929 80.0689 34.0082 80.2135C34.2234 80.3581 34.4079 80.5438 34.5511 80.76C34.5581 80.771 34.6021 80.84 34.6101 80.851C34.8034 81.1543 34.9116 81.5039 34.9235 81.8633C34.9355 82.2227 34.8507 82.5788 34.678 82.8942C34.5053 83.2097 34.251 83.473 33.9418 83.6566C33.6326 83.8402 33.2797 83.9374 32.9201 83.938V83.938ZM96.5381 75.113C96.224 75.1132 95.9142 75.0393 95.634 74.8975C95.3537 74.7557 95.1108 74.5498 94.9249 74.2966C94.739 74.0435 94.6153 73.75 94.5639 73.4401C94.5126 73.1303 94.5349 72.8126 94.6291 72.513C94.7859 72.0045 95.1348 71.5772 95.6016 71.3218C96.0684 71.0664 96.6163 71.0029 97.1291 71.145C97.3791 71.2129 97.6132 71.3298 97.8177 71.4888C98.0223 71.6478 98.1933 71.8458 98.3208 72.0713C98.4483 72.2969 98.5298 72.5454 98.5606 72.8027C98.5914 73.0599 98.5708 73.3207 98.5001 73.57L98.4591 73.709C98.3319 74.1166 98.0775 74.4727 97.7333 74.7253C97.3891 74.978 96.9731 75.1138 96.5461 75.113H96.5381ZM28.7691 74.725C28.3456 74.7295 27.9323 74.595 27.5926 74.3421C27.2528 74.0893 27.0053 73.732 26.8881 73.325C26.8881 73.325 26.8581 73.225 26.8571 73.217C26.7861 72.9641 26.7655 72.6997 26.7966 72.4389C26.8278 72.1781 26.91 71.926 27.0385 71.697C27.1671 71.468 27.3395 71.2665 27.5459 71.1041C27.7524 70.9417 27.9888 70.8215 28.2416 70.7505C28.4945 70.6794 28.7588 70.6589 29.0196 70.69C29.2804 70.7211 29.5326 70.8033 29.7616 70.9319C29.9906 71.0605 30.1921 71.2329 30.3545 71.4393C30.5169 71.6457 30.6371 71.8821 30.7081 72.135C30.8544 72.649 30.7936 73.1999 30.5387 73.6697C30.2837 74.1394 29.8549 74.4906 29.3441 74.648C29.1595 74.6991 28.9687 74.725 28.7771 74.725H28.7691ZM98.0001 65.155C97.4697 65.155 96.961 64.9443 96.5859 64.5692C96.2108 64.1941 96.0001 63.6854 96.0001 63.155C95.9984 62.6194 96.207 62.1045 96.581 61.7211C96.9551 61.3378 97.4646 61.1165 98.0001 61.105C98.2601 61.0995 98.5186 61.1459 98.7605 61.2414C99.0024 61.3369 99.2229 61.4797 99.4091 61.6613C99.5952 61.8429 99.7434 62.0597 99.8448 62.2992C99.9463 62.5386 99.9991 62.7959 100 63.056V63.156C99.9998 63.6862 99.789 64.1947 99.414 64.5695C99.0389 64.9444 98.5304 65.155 98.0001 65.155ZM27.4641 64.747C27.2042 64.7524 26.9458 64.7061 26.7039 64.6106C26.4621 64.5152 26.2417 64.3726 26.0555 64.1911C25.8694 64.0096 25.7212 63.7928 25.6197 63.5535C25.5181 63.3141 25.4652 63.057 25.4641 62.797V62.732C25.4672 62.2016 25.6786 61.6936 26.0527 61.3177C26.4269 60.9417 26.9337 60.7277 27.4641 60.722H27.4711C27.7322 60.7199 27.9911 60.7695 28.233 60.8679C28.4748 60.9664 28.6948 61.1118 28.8801 61.2956C29.0655 61.4795 29.2126 61.6983 29.313 61.9393C29.4134 62.1804 29.4651 62.4389 29.4651 62.7C29.466 63.2352 29.2569 63.7495 28.8828 64.1322C28.5086 64.515 27.9992 64.7357 27.4641 64.747ZM96.7421 55.69C96.3083 55.6898 95.8863 55.5485 95.5398 55.2875C95.1933 55.0265 94.9411 54.6599 94.8211 54.243L94.7861 54.119C94.6465 53.6071 94.7159 53.0607 94.9791 52.6001C95.2423 52.1394 95.6777 51.8021 96.1896 51.6625C96.7015 51.5228 97.2479 51.5923 97.7085 51.8555C98.1692 52.1187 98.5065 52.5541 98.6461 53.066L98.6651 53.136C98.8119 53.6452 98.7506 54.1918 98.4947 54.6559C98.2388 55.12 97.8091 55.4635 97.3001 55.611C97.1188 55.6639 96.9309 55.6905 96.7421 55.69V55.69ZM28.9641 54.849C28.7672 54.8484 28.5715 54.8191 28.3831 54.762C27.8755 54.6081 27.4498 54.259 27.1996 53.7913C26.9494 53.3235 26.8953 52.7756 27.0491 52.268L27.0701 52.197C27.217 51.6872 27.5604 51.2567 28.0248 51.0002C28.2547 50.8732 28.5074 50.7927 28.7684 50.7633C29.0295 50.7339 29.2937 50.7562 29.5461 50.829C29.7985 50.9017 30.0341 51.0235 30.2395 51.1873C30.4448 51.3511 30.6159 51.5537 30.7429 51.7837C30.8699 52.0136 30.9504 52.2663 30.9798 52.5273C31.0092 52.7883 30.9869 53.0526 30.9141 53.305L30.8771 53.428C30.7529 53.8387 30.4998 54.1986 30.1554 54.4545C29.8109 54.7104 29.3932 54.8487 28.9641 54.849ZM92.7121 46.47C92.3717 46.47 92.0368 46.3832 91.7393 46.2176C91.4418 46.0521 91.1915 45.8133 91.0121 45.524C90.7271 45.0695 90.6322 44.5213 90.7478 43.9974C90.8634 43.4736 91.1803 43.0162 91.6301 42.724C91.848 42.5821 92.0919 42.4851 92.3477 42.4384C92.6034 42.3918 92.8659 42.3965 93.1198 42.4524C93.3737 42.5082 93.614 42.6141 93.8266 42.7637C94.0392 42.9133 94.2199 43.1038 94.3581 43.324L94.4111 43.409C94.5992 43.7119 94.7029 44.0596 94.7114 44.4161C94.72 44.7726 94.633 45.1249 94.4596 45.4365C94.2863 45.7481 94.0327 46.0076 93.7253 46.1883C93.4178 46.369 93.0677 46.4641 92.7111 46.464L92.7121 46.47ZM33.2221 45.681C32.8675 45.6796 32.5198 45.5833 32.215 45.402C31.9103 45.2208 31.6596 44.9612 31.4892 44.6503C31.3187 44.3394 31.2346 43.9885 31.2457 43.634C31.2568 43.2796 31.3626 42.9347 31.5521 42.635L31.6121 42.544C31.7553 42.3214 31.9413 42.1294 32.1593 41.9792C32.3772 41.829 32.6228 41.7235 32.8819 41.669C33.1409 41.6144 33.4082 41.6118 33.6682 41.6613C33.9282 41.7108 34.1759 41.8115 34.3967 41.9574C34.6176 42.1033 34.8072 42.2916 34.9548 42.5114C35.1023 42.7312 35.2047 42.9781 35.2561 43.2378C35.3075 43.4975 35.3068 43.7648 35.2541 44.0242C35.2014 44.2836 35.0977 44.5299 34.9491 44.749C34.7606 45.0349 34.5042 45.2696 34.2029 45.4323C33.9015 45.5949 33.5646 45.6804 33.2221 45.681V45.681ZM86.2381 38.763C85.7584 38.7639 85.2945 38.5912 84.9321 38.277L84.8251 38.182C84.6199 38.0092 84.4516 37.7969 84.3302 37.5578C84.2087 37.3186 84.1366 37.0575 84.1182 36.7899C84.0997 36.5224 84.1352 36.2538 84.2227 36.0002C84.3101 35.7467 84.4476 35.5133 84.6271 35.3139C84.8066 35.1146 85.0243 34.9534 85.2673 34.84C85.5104 34.7265 85.7737 34.6631 86.0418 34.6535C86.3098 34.6439 86.5771 34.6883 86.8276 34.784C87.0781 34.8798 87.3068 35.025 87.5001 35.211L86.1641 36.7L87.5451 35.252C87.8544 35.5185 88.0747 35.8734 88.1764 36.2688C88.2781 36.6642 88.2563 37.0813 88.114 37.464C87.9717 37.8467 87.7157 38.1767 87.3804 38.4096C87.045 38.6426 86.6464 38.7672 86.2381 38.767V38.763ZM39.9161 38.135C39.5119 38.1367 39.1168 38.0148 38.7837 37.7858C38.4507 37.5568 38.1955 37.2315 38.0524 36.8535C37.9092 36.4754 37.885 36.0627 37.9829 35.6705C38.0808 35.2783 38.2961 34.9254 38.6001 34.659L38.6761 34.595C38.8755 34.4182 39.1082 34.2831 39.3606 34.1976C39.6129 34.112 39.8798 34.0777 40.1456 34.0968C40.4114 34.1158 40.6707 34.1878 40.9083 34.3084C41.1459 34.429 41.357 34.596 41.5291 34.7993C41.7013 35.0027 41.8311 35.2384 41.9109 35.4926C41.9907 35.7469 42.0189 36.0145 41.9939 36.2798C41.9688 36.545 41.891 36.8026 41.765 37.0374C41.639 37.2722 41.4673 37.4795 41.2601 37.647C40.8843 37.9642 40.4079 38.1372 39.9161 38.135V38.135ZM77.8571 33.188C77.5742 33.1878 77.2946 33.1272 77.0371 33.01L76.8981 32.945C76.4307 32.7081 76.0749 32.2971 75.9073 31.8006C75.7397 31.3041 75.7737 30.7616 76.002 30.2899C76.2302 29.8182 76.6345 29.4549 77.1279 29.2782C77.6213 29.1015 78.1643 29.1255 78.6401 29.345L77.7691 31.145L78.6831 29.365C79.1003 29.5532 79.4402 29.8788 79.6463 30.2874C79.8524 30.6961 79.9121 31.163 79.8154 31.6104C79.7188 32.0577 79.4716 32.4583 79.1152 32.7455C78.7588 33.0326 78.3148 33.1888 77.8571 33.188V33.188ZM48.4691 32.788C48.0775 32.7918 47.6932 32.6815 47.3633 32.4706C47.0333 32.2596 46.7719 31.9571 46.6111 31.6C46.5032 31.366 46.4426 31.113 46.4327 30.8555C46.4228 30.598 46.4639 30.3411 46.5536 30.0995C46.6432 29.858 46.7797 29.6365 46.9552 29.4478C47.1307 29.2591 47.3417 29.1069 47.5761 29L47.7171 28.938C48.2063 28.7328 48.757 28.7304 49.2479 28.9313C49.7389 29.1321 50.13 29.5198 50.3351 30.009C50.5403 30.4982 50.5427 31.0488 50.3418 31.5398C50.141 32.0308 49.7533 32.4218 49.2641 32.627C49.012 32.7311 48.7419 32.7845 48.4691 32.784V32.788ZM68.2471 30.22C68.1298 30.2198 68.0127 30.2098 67.8971 30.19C67.3736 30.0996 66.9059 29.8089 66.5931 29.3796C66.2802 28.9502 66.1468 28.416 66.2211 27.89C66.2575 27.6349 66.3438 27.3894 66.4751 27.1677C66.6064 26.946 66.7801 26.7522 66.9862 26.5976C67.1924 26.443 67.427 26.3305 67.6766 26.2666C67.9262 26.2026 68.186 26.1885 68.4411 26.225L68.5921 26.249C69.085 26.3353 69.5277 26.6033 69.8327 27.0001C70.1377 27.3969 70.2828 27.8936 70.2395 28.3921C70.1962 28.8907 69.9675 29.3549 69.5987 29.6931C69.2298 30.0313 68.7476 30.219 68.2471 30.219V30.22ZM58.0821 30.095C57.8198 30.1102 57.557 30.0736 57.3089 29.9873C57.0607 29.901 56.8319 29.7667 56.6357 29.5919C56.2393 29.2391 55.9994 28.7432 55.9686 28.2135C55.9378 27.6837 56.1188 27.1634 56.4716 26.7671C56.8245 26.3707 57.3203 26.1307 57.8501 26.1L58.0841 28.087L57.8911 26.1C58.4158 26.022 58.9501 26.1557 59.3762 26.4716C59.8024 26.7875 60.0856 27.2597 60.1636 27.7845C60.2416 28.3092 60.1079 28.8434 59.792 29.2696C59.4761 29.6958 59.0038 29.979 58.4791 30.057L58.3181 30.077C58.2398 30.0866 58.161 30.0912 58.0821 30.091V30.095Z" fill="#B7B7B7" style="fill:#B7B7B7;fill:color(display-p3 0.7159 0.7159 0.7159);fill-opacity:1;"/>
<path d="M65.183 72.753C64.6618 72.7547 64.1588 72.5615 63.7729 72.2112C63.3869 71.8609 63.1459 71.379 63.0973 70.86C63.0486 70.3411 63.1957 69.8228 63.5098 69.4068C63.8238 68.9909 64.2821 68.7074 64.7945 68.6122C65.3069 68.5169 65.8365 68.6168 66.279 68.8921C66.7216 69.1674 67.0452 69.5982 67.1862 70.1C67.3273 70.6017 67.2756 71.1381 67.0413 71.6036C66.807 72.0692 66.407 72.4303 65.92 72.616L65.72 72.68C65.5451 72.7283 65.3645 72.7529 65.183 72.753V72.753ZM56.206 69.865C55.9078 69.8658 55.6136 69.7971 55.3466 69.6643C55.0796 69.5315 54.8473 69.3383 54.668 69.1L54.575 68.973C54.4224 68.7593 54.3133 68.5176 54.254 68.2617C54.1948 68.0058 54.1865 67.7408 54.2297 67.4817C54.2729 67.2226 54.3667 66.9746 54.5057 66.7517C54.6447 66.5289 54.8263 66.3357 55.04 66.183C55.2538 66.0303 55.4955 65.9213 55.7513 65.862C56.0072 65.8028 56.2723 65.7945 56.5313 65.8377C56.7904 65.8808 57.0384 65.9746 57.2613 66.1137C57.4841 66.2527 57.6774 66.4343 57.83 66.648C58.052 66.9485 58.1862 67.3047 58.2177 67.677C58.2491 68.0492 58.1767 68.4229 58.0083 68.7564C57.84 69.0899 57.5823 69.3701 57.2641 69.5659C56.9459 69.7616 56.5796 69.8651 56.206 69.865V69.865ZM70.806 65.156H70.776C70.2458 65.1484 69.7402 64.9304 69.3706 64.5501C69.001 64.1698 68.7975 63.6583 68.805 63.128C68.805 63.091 68.805 63.054 68.805 63.018C68.805 62.982 68.805 62.97 68.805 62.946C68.7876 62.4107 68.981 61.89 69.3436 61.496C69.7063 61.1019 70.2092 60.866 70.744 60.839C71.0036 60.826 71.2632 60.8647 71.5077 60.953C71.7521 61.0413 71.9766 61.1774 72.1679 61.3533C72.3593 61.5292 72.5137 61.7414 72.6222 61.9776C72.7308 62.2138 72.7912 62.4692 72.8 62.729V62.829C72.8 62.871 72.8 62.913 72.8 62.954C72.8 62.995 72.8 63.021 72.8 63.054V63.183C72.793 63.7072 72.5804 64.2076 72.208 64.5766C71.8356 64.9456 71.3333 65.1537 70.809 65.156H70.806ZM56.1 60.4C55.7396 60.3992 55.3863 60.3004 55.0778 60.1142C54.7692 59.9279 54.5172 59.6612 54.3487 59.3427C54.1802 59.0242 54.1015 58.6658 54.1211 58.3059C54.1407 57.9461 54.2579 57.5983 54.46 57.3L54.532 57.2C54.6847 56.9863 54.8779 56.8047 55.1008 56.6657C55.3236 56.5266 55.5716 56.4328 55.8307 56.3897C56.0898 56.3465 56.3548 56.3548 56.6107 56.414C56.8666 56.4733 57.1083 56.5823 57.322 56.735C57.5358 56.8877 57.7173 57.0809 57.8564 57.3037C57.9954 57.5266 58.0892 57.7746 58.1324 58.0337C58.1755 58.2928 58.1673 58.5578 58.108 58.8137C58.0488 59.0696 57.9397 59.3113 57.787 59.525C57.5967 59.7955 57.344 60.0162 57.0504 60.1685C56.7568 60.3208 56.4308 60.4002 56.1 60.4V60.4ZM65.12 57.34C64.9203 57.3399 64.7217 57.3096 64.531 57.25C64.0184 57.0964 63.5867 56.7475 63.3289 56.2785C63.0712 55.8096 63.008 55.2581 63.153 54.743C63.2239 54.4931 63.3437 54.2599 63.5055 54.0567C63.6674 53.8536 63.8679 53.6846 64.0956 53.5596C64.3233 53.4347 64.5735 53.3562 64.8318 53.3288C65.0901 53.3014 65.3512 53.3256 65.6 53.4L65.7 53.432C66.1581 53.5726 66.5505 53.8729 66.8058 54.2784C67.061 54.6838 67.1623 55.1674 67.0911 55.6413C67.0199 56.1151 66.7809 56.5476 66.4177 56.8601C66.0545 57.1726 65.5912 57.3443 65.112 57.344L65.12 57.34Z" fill="#B7B7B7" style="fill:#B7B7B7;fill:color(display-p3 0.7159 0.7159 0.7159);fill-opacity:1;"/>
<path d="M59.382 81.863C59.2439 81.8633 59.1062 81.8492 58.971 81.821L59.38 79.863L58.928 81.812C58.4102 81.7138 57.9522 81.4153 57.6533 80.9812C57.3545 80.5472 57.239 80.0127 57.332 79.494C57.4251 78.9753 57.719 78.5143 58.1501 78.2111C58.5811 77.908 59.1144 77.7872 59.634 77.875L59.789 77.905C60.2735 78.0059 60.7034 78.2828 60.9955 78.6823C61.2877 79.0817 61.4214 79.5753 61.3708 80.0676C61.3202 80.5599 61.0888 81.0159 60.7215 81.3475C60.3541 81.6792 59.8769 81.8628 59.382 81.863V81.863ZM69.193 80.932C68.7294 80.9329 68.2799 80.7728 67.9214 80.479C67.5628 80.1852 67.3174 79.776 67.2272 79.3213C67.1369 78.8666 67.2075 78.3947 67.4267 77.9862C67.6459 77.5778 68.0002 77.2581 68.429 77.082C68.9234 76.8763 69.4787 76.8727 69.9757 77.0721C70.4727 77.2714 70.8717 77.6577 71.087 78.148C71.1915 78.3862 71.2476 78.6427 71.2518 78.9028C71.256 79.1628 71.2084 79.4211 71.1116 79.6625C71.0149 79.904 70.871 80.1237 70.6884 80.3089C70.5058 80.494 70.288 80.6409 70.048 80.741L69.956 80.779C69.7143 80.8799 69.4549 80.9319 69.193 80.932V80.932ZM50.607 77.163C50.3443 77.1634 50.0841 77.1118 49.8415 77.0112C49.5988 76.9107 49.3784 76.7631 49.193 76.577L50.607 75.163L49.137 76.521C48.7581 76.1497 48.5423 75.6431 48.5369 75.1127C48.5316 74.5822 48.7372 74.0714 49.1085 73.6925C49.4798 73.3136 49.9864 73.0978 50.5168 73.0924C51.0473 73.0871 51.5581 73.2927 51.937 73.664L52.022 73.749C52.3016 74.0287 52.492 74.385 52.5692 74.7729C52.6463 75.1608 52.6067 75.5629 52.4553 75.9283C52.304 76.2937 52.0477 76.606 51.7189 76.8258C51.3901 77.0456 51.0035 77.1629 50.608 77.163H50.607ZM76.921 74.663C76.5599 74.6631 76.2055 74.5655 75.8954 74.3804C75.5853 74.1954 75.3311 73.9298 75.1598 73.612C74.9885 73.2941 74.9064 72.9358 74.9223 72.5751C74.9381 72.2143 75.0514 71.8646 75.25 71.563C75.256 71.554 75.317 71.463 75.324 71.453C75.4703 71.2329 75.6588 71.0441 75.8786 70.8973C76.0984 70.7505 76.345 70.6487 76.6044 70.5978C76.8637 70.547 77.1306 70.548 77.3895 70.6009C77.6484 70.6537 77.8943 70.7574 78.113 70.9058C78.3316 71.0543 78.5186 71.2446 78.6633 71.4658C78.8079 71.687 78.9073 71.9347 78.9556 72.1945C79.004 72.4543 79.0004 72.7211 78.945 72.9795C78.8896 73.2379 78.7836 73.4828 78.633 73.7L76.979 72.577L78.6 73.757C78.4175 74.0356 78.1684 74.2641 77.8752 74.422C77.582 74.5798 77.254 74.662 76.921 74.661V74.663ZM45.889 68.338C45.4346 68.344 44.9926 68.1904 44.6398 67.9041C44.2869 67.6178 44.0457 67.2168 43.958 66.771L43.947 66.717C43.8448 66.1944 43.9529 65.6527 44.2478 65.2093C44.5427 64.766 45.0006 64.4568 45.522 64.349C45.7777 64.2959 46.0414 64.294 46.2978 64.3434C46.5543 64.3927 46.7984 64.4924 47.0161 64.6366C47.2338 64.7808 47.4209 64.9667 47.5664 65.1835C47.7119 65.4004 47.8131 65.6439 47.864 65.9C47.9698 66.4252 47.8653 66.971 47.5728 67.4198C47.2802 67.8687 46.8232 68.1848 46.3 68.3C46.1646 68.3261 46.0269 68.3388 45.889 68.338V68.338ZM79.866 65.155H79.836C79.3057 65.1471 78.8003 64.9289 78.4309 64.5484C78.0614 64.1679 77.8582 63.6563 77.866 63.126C77.8718 62.5954 78.0838 62.0879 78.457 61.7108C78.8302 61.3336 79.3355 61.1164 79.866 61.105H79.88C80.1388 61.1016 80.3956 61.1494 80.6358 61.2458C80.876 61.3423 81.0946 61.4853 81.2792 61.6667C81.4638 61.8481 81.6106 62.0643 81.7111 62.3027C81.8117 62.5412 81.864 62.7972 81.865 63.056V63.185C81.8571 63.71 81.6431 64.2109 81.2691 64.5795C80.895 64.9481 80.3911 65.1548 79.866 65.155V65.155ZM78.616 58.62C78.2171 58.62 77.8273 58.5006 77.4968 58.2773C77.1662 58.0541 76.91 57.737 76.761 57.367C76.5577 56.8718 76.5572 56.3165 76.7597 55.821C76.9621 55.3254 77.3512 54.9293 77.843 54.718C78.0819 54.6151 78.3389 54.5608 78.599 54.5583C78.8592 54.5557 79.1172 54.605 79.3581 54.7032C79.5989 54.8014 79.8179 54.9466 80.0021 55.1302C80.1863 55.3139 80.3321 55.5324 80.431 55.773L80.471 55.873C80.5936 56.1766 80.6398 56.5057 80.6055 56.8314C80.5713 57.157 80.4576 57.4693 80.2744 57.7407C80.0912 58.0121 79.8442 58.2345 79.5551 58.3881C79.2659 58.5418 78.9434 58.6221 78.616 58.622V58.62ZM46.9 58.469C46.5741 58.4677 46.2534 58.3868 45.966 58.2332C45.6785 58.0797 45.4329 57.8583 45.2505 57.5882C45.0681 57.3181 44.9545 57.0075 44.9196 56.6835C44.8846 56.3594 44.9294 56.0318 45.05 55.729L45.12 55.565C45.2803 55.247 45.5225 54.9775 45.8218 54.7844C46.1211 54.5913 46.4665 54.4817 46.8223 54.4668C47.1782 54.4519 47.5315 54.5322 47.8459 54.6996C48.1603 54.867 48.4243 55.1153 48.6106 55.4188C48.7969 55.7223 48.8987 56.0701 48.9057 56.4262C48.9126 56.7823 48.8243 57.1337 48.6499 57.4443C48.4755 57.7548 48.2214 58.0131 47.9137 58.1926C47.6061 58.372 47.2561 58.4661 46.9 58.465V58.469ZM72.355 50.879C71.9551 50.8793 71.5645 50.7591 71.234 50.534C70.7907 50.2355 70.482 49.7752 70.374 49.2519C70.2659 48.7285 70.3672 48.1836 70.656 47.734C70.796 47.5156 70.978 47.3271 71.1915 47.1797C71.4049 47.0322 71.6456 46.9287 71.8994 46.8751C72.1533 46.8215 72.4153 46.8189 72.6701 46.8674C72.925 46.916 73.1676 47.0148 73.384 47.158L73.484 47.223C73.8382 47.4633 74.1059 47.8109 74.2479 48.2148C74.3898 48.6186 74.3985 49.0573 74.2726 49.4664C74.1466 49.8755 73.8928 50.2334 73.5483 50.4875C73.2039 50.7416 72.787 50.8784 72.359 50.878L72.355 50.879ZM53.232 50.8C52.8026 50.8003 52.3846 50.6624 52.0396 50.4068C51.6947 50.1511 51.4412 49.7912 51.3166 49.3804C51.192 48.9695 51.2029 48.5294 51.3478 48.1252C51.4927 47.721 51.7638 47.3742 52.121 47.136L53.23 48.8L52.19 47.089C52.6291 46.791 53.1685 46.6797 53.6897 46.7795C54.2108 46.8792 54.671 47.1819 54.969 47.621C55.267 48.0601 55.3783 48.5995 55.2785 49.1207C55.1788 49.6418 54.8761 50.102 54.437 50.4L54.337 50.464C54.01 50.6829 53.6255 50.7999 53.232 50.8ZM62.857 47.927H62.757C62.2266 47.927 61.7178 47.7163 61.3428 47.3412C60.9677 46.9661 60.757 46.4574 60.757 45.927C60.757 45.3966 60.9677 44.8879 61.3428 44.5128C61.7178 44.1377 62.2266 43.927 62.757 43.927H62.857C63.3874 43.927 63.8961 44.1377 64.2712 44.5128C64.6463 44.8879 64.857 45.3966 64.857 45.927C64.857 46.4574 64.6463 46.9661 64.2712 47.3412C63.8961 47.7163 63.3874 47.927 62.857 47.927Z" fill="#B7B7B7" style="fill:#B7B7B7;fill:color(display-p3 0.7159 0.7159 0.7159);fill-opacity:1;"/>
</g>
<defs>
<clipPath id="clip0_103_14">
<rect width="100" height="100" fill="white" style="fill:white;fill-opacity:1;"/>
</clipPath>
</defs>
</svg>
