<svg width="100" height="100" viewBox="0 0 100 100" fill="none" xmlns="http://www.w3.org/2000/svg">
<g clip-path="url(#clip0_103_86)">
<path d="M42.698 10.093L0 84.049H85.397L42.698 10.093Z" fill="black" style="fill:black;fill-opacity:1;"/>
<path d="M59.5189 26.716C59.2093 26.7161 58.9029 26.6525 58.6189 26.529C58.534 26.4923 58.4512 26.4509 58.3709 26.405C58.113 26.2584 57.8867 26.0623 57.705 25.8278C57.5232 25.5934 57.3896 25.3253 57.3119 25.039C57.2342 24.7527 57.2139 24.4539 57.2522 24.1598C57.2905 23.8656 57.3865 23.5819 57.5349 23.325C57.7352 22.9782 58.0225 22.6896 58.3686 22.4879C58.7147 22.2862 59.1074 22.1783 59.5079 22.175C60.0087 22.1701 60.4971 22.331 60.8968 22.6328C61.2966 22.9345 61.5852 23.3601 61.7176 23.8431C61.8501 24.3261 61.8189 24.8394 61.6291 25.3028C61.4392 25.7663 61.1012 26.1538 60.6679 26.405C60.319 26.6082 59.9226 26.7155 59.5189 26.716V26.716Z" fill="#B7B7B7" style="fill:#B7B7B7;fill:color(display-p3 0.7159 0.7159 0.7159);fill-opacity:1;"/>
<path d="M26.0421 84.672C25.6443 84.6716 25.2537 84.5666 24.9094 84.3676C24.565 84.1685 24.2791 83.8824 24.0802 83.538C23.8814 83.1935 23.7766 82.8029 23.7764 82.4051C23.7762 82.0074 23.8806 81.6166 24.0791 81.272L24.1261 81.19C24.4314 80.6795 24.9252 80.3094 25.5008 80.1595C26.0765 80.0095 26.688 80.0918 27.2036 80.3885C27.7192 80.6851 28.0976 81.1725 28.2572 81.7456C28.4169 82.3186 28.345 82.9314 28.0571 83.452L28.0101 83.535C27.8112 83.881 27.5245 84.1684 27.1789 84.3681C26.8334 84.5677 26.4412 84.6726 26.0421 84.672V84.672ZM30.8211 76.394C30.4242 76.393 30.0346 76.2879 29.6911 76.0891C29.3476 75.8904 29.0622 75.605 28.8635 75.2615C28.6648 74.918 28.5598 74.5283 28.5588 74.1315C28.5579 73.7346 28.661 73.3445 28.8581 73L28.9051 72.917C29.2078 72.4009 29.7022 72.0253 30.2805 71.8721C30.8589 71.7189 31.4744 71.8004 31.9929 72.0989C32.5114 72.3974 32.891 72.8887 33.0489 73.4658C33.2068 74.0429 33.1303 74.659 32.8361 75.18L32.7891 75.262C32.5895 75.607 32.3025 75.8933 31.957 76.0921C31.6115 76.2908 31.2197 76.395 30.8211 76.394ZM35.6001 68.117C35.2022 68.1169 34.8114 68.0121 34.4669 67.8131C34.1224 67.6142 33.8363 67.328 33.6374 66.9835C33.4384 66.6389 33.3337 66.2481 33.3336 65.8503C33.3336 65.4524 33.4382 65.0616 33.6371 64.717L33.6841 64.634C33.9846 64.1127 34.4798 63.7321 35.0609 63.576C35.642 63.4199 36.2613 63.501 36.7826 63.8015C37.3039 64.102 37.6844 64.5972 37.8405 65.1783C37.9967 65.7594 37.9156 66.3787 37.6151 66.9L37.5681 66.982C37.3689 67.3276 37.082 67.6145 36.7365 67.8138C36.391 68.0131 35.999 68.1177 35.6001 68.117ZM40.3791 59.84C39.9806 59.8395 39.5893 59.7341 39.2445 59.5343C38.8997 59.3344 38.6137 59.0473 38.4152 58.7018C38.2167 58.3563 38.1127 57.9646 38.1137 57.5661C38.1148 57.1676 38.2208 56.7765 38.4211 56.432L38.4681 56.35C38.774 55.8373 39.2698 55.4659 39.8479 55.3165C40.4259 55.167 41.0396 55.2515 41.5557 55.5516C42.0718 55.8517 42.4488 56.3433 42.6048 56.9196C42.7608 57.4959 42.6833 58.1105 42.3891 58.63L42.3411 58.712C42.1416 59.0555 41.8553 59.3405 41.511 59.5385C41.1666 59.7364 40.7763 59.8404 40.3791 59.84V59.84ZM45.1581 51.563C44.7603 51.5627 44.3695 51.4579 44.025 51.2589C43.6805 51.06 43.3945 50.7739 43.1955 50.4294C42.9965 50.0849 42.8916 49.6942 42.8914 49.2964C42.8911 48.8986 42.9955 48.5077 43.1941 48.163L43.2421 48.08C43.5448 47.5639 44.0392 47.1883 44.6175 47.0351C45.1959 46.8819 45.8114 46.9634 46.3299 47.2619C46.8484 47.5604 47.228 48.0517 47.3859 48.6288C47.5438 49.2059 47.4673 49.822 47.1731 50.343L47.1261 50.425C46.9272 50.7711 46.6405 51.0585 46.2949 51.2584C45.9494 51.4582 45.5572 51.5632 45.1581 51.563V51.563ZM49.9371 43.285C49.5393 43.2847 49.1485 43.1799 48.804 42.9809C48.4595 42.782 48.1735 42.4959 47.9745 42.1514C47.7755 41.8069 47.6706 41.4162 47.6704 41.0184C47.6701 40.6206 47.7745 40.2297 47.9731 39.885L48.0211 39.803C48.1668 39.5395 48.3635 39.3077 48.5997 39.1211C48.836 38.9344 49.107 38.7967 49.397 38.7159C49.6871 38.6351 49.9903 38.6129 50.289 38.6505C50.5877 38.6881 50.8759 38.7848 51.1369 38.9349C51.3978 39.0851 51.6263 39.2857 51.8089 39.5251C51.9915 39.7644 52.1246 40.0377 52.2005 40.3291C52.2764 40.6204 52.2935 40.924 52.2508 41.222C52.2082 41.52 52.1066 41.8066 51.9521 42.065L51.9051 42.147C51.7062 42.4931 51.4195 42.7805 51.0739 42.9804C50.7284 43.1802 50.3362 43.2852 49.9371 43.285V43.285ZM54.7161 35.008C54.3183 35.0077 53.9275 34.9029 53.583 34.7039C53.2385 34.505 52.9525 34.2189 52.7535 33.8744C52.5545 33.5299 52.4496 33.1392 52.4494 32.7414C52.4491 32.3436 52.5535 31.9527 52.7521 31.608L52.8001 31.526C52.9458 31.2625 53.1425 31.0307 53.3787 30.8441C53.615 30.6574 53.886 30.5197 54.176 30.4389C54.4661 30.3581 54.7693 30.3359 55.068 30.3735C55.3667 30.4111 55.6549 30.5078 55.9159 30.6579C56.1768 30.8081 56.4053 31.0087 56.5879 31.2481C56.7705 31.4874 56.9036 31.7607 56.9795 32.0521C57.0554 32.3434 57.0725 32.647 57.0298 32.945C56.9872 33.243 56.8856 33.5296 56.7311 33.788L56.6841 33.87C56.4852 34.2161 56.1985 34.5035 55.8529 34.7034C55.5074 34.9032 55.1152 35.0082 54.7161 35.008V35.008Z" fill="#B7B7B7" style="fill:#B7B7B7;fill:color(display-p3 0.7159 0.7159 0.7159);fill-opacity:1;"/>
<path d="M21.3351 92.9069C20.9336 92.9075 20.5389 92.803 20.1903 92.6037C19.8417 92.4044 19.5513 92.1173 19.3481 91.7709C19.0997 91.3394 19.0003 90.838 19.0653 90.3443C19.1302 89.8506 19.356 89.392 19.7076 89.0394C20.0592 88.6867 20.5171 88.4597 21.0106 88.3933C21.5041 88.3269 22.0058 88.4248 22.4381 88.672C22.8704 88.9191 23.2093 89.3018 23.4024 89.7607C23.5956 90.2197 23.6322 90.7295 23.5067 91.2114C23.3812 91.6933 23.1005 92.1205 22.708 92.4269C22.3155 92.7334 21.8331 92.9021 21.3351 92.9069V92.9069Z" fill="#B7B7B7" style="fill:#B7B7B7;fill:color(display-p3 0.7159 0.7159 0.7159);fill-opacity:1;"/>
<path d="M88.2409 92.907H88.1459C87.5444 92.907 86.9675 92.668 86.5422 92.2427C86.1169 91.8174 85.8779 91.2405 85.8779 90.639C85.8779 90.0375 86.1169 89.4606 86.5422 89.0352C86.9675 88.6099 87.5444 88.371 88.1459 88.371H88.2409C88.8424 88.371 89.4193 88.6099 89.8446 89.0352C90.27 89.4606 90.5089 90.0375 90.5089 90.639C90.5089 91.2405 90.27 91.8174 89.8446 92.2427C89.4193 92.668 88.8424 92.907 88.2409 92.907V92.907ZM78.6829 92.907H78.5829C77.9814 92.907 77.4045 92.668 76.9792 92.2427C76.5538 91.8174 76.3149 91.2405 76.3149 90.639C76.3149 90.0375 76.5538 89.4606 76.9792 89.0352C77.4045 88.6099 77.9814 88.371 78.5829 88.371H78.6829C79.2844 88.371 79.8613 88.6099 80.2866 89.0352C80.712 89.4606 80.9509 90.0375 80.9509 90.639C80.9509 91.2405 80.712 91.8174 80.2866 92.2427C79.8613 92.668 79.2844 92.907 78.6829 92.907ZM69.1249 92.907H69.0299C68.4284 92.907 67.8515 92.668 67.4262 92.2427C67.0009 91.8174 66.7619 91.2405 66.7619 90.639C66.7619 90.0375 67.0009 89.4606 67.4262 89.0352C67.8515 88.6099 68.4284 88.371 69.0299 88.371H69.1249C69.7264 88.371 70.3033 88.6099 70.7286 89.0352C71.154 89.4606 71.3929 90.0375 71.3929 90.639C71.3929 91.2405 71.154 91.8174 70.7286 92.2427C70.3033 92.668 69.7264 92.907 69.1249 92.907ZM59.5669 92.907H59.4719C58.8704 92.907 58.2935 92.668 57.8682 92.2427C57.4429 91.8174 57.2039 91.2405 57.2039 90.639C57.2039 90.0375 57.4429 89.4606 57.8682 89.0352C58.2935 88.6099 58.8704 88.371 59.4719 88.371H59.5669C60.1684 88.371 60.7453 88.6099 61.1706 89.0352C61.596 89.4606 61.8349 90.0375 61.8349 90.639C61.8349 91.2405 61.596 91.8174 61.1706 92.2427C60.7453 92.668 60.1684 92.907 59.5669 92.907ZM50.0089 92.907H49.9139C49.3124 92.907 48.7355 92.668 48.3102 92.2427C47.8849 91.8174 47.6459 91.2405 47.6459 90.639C47.6459 90.0375 47.8849 89.4606 48.3102 89.0352C48.7355 88.6099 49.3124 88.371 49.9139 88.371H50.0089C50.6104 88.371 51.1873 88.6099 51.6126 89.0352C52.038 89.4606 52.2769 90.0375 52.2769 90.639C52.2769 91.2405 52.038 91.8174 51.6126 92.2427C51.1873 92.668 50.6104 92.907 50.0089 92.907ZM40.4509 92.907H40.3559C39.7544 92.907 39.1775 92.668 38.7522 92.2427C38.3269 91.8174 38.0879 91.2405 38.0879 90.639C38.0879 90.0375 38.3269 89.4606 38.7522 89.0352C39.1775 88.6099 39.7544 88.371 40.3559 88.371H40.4509C41.0524 88.371 41.6293 88.6099 42.0546 89.0352C42.48 89.4606 42.7189 90.0375 42.7189 90.639C42.7189 91.2405 42.48 91.8174 42.0546 92.2427C41.6293 92.668 41.0524 92.907 40.4509 92.907ZM30.8929 92.907H30.7929C30.1914 92.907 29.6145 92.668 29.1892 92.2427C28.7639 91.8174 28.5249 91.2405 28.5249 90.639C28.5249 90.0375 28.7639 89.4606 29.1892 89.0352C29.6145 88.6099 30.1914 88.371 30.7929 88.371H30.8929C31.4944 88.371 32.0713 88.6099 32.4966 89.0352C32.922 89.4606 33.1609 90.0375 33.1609 90.639C33.1609 91.2405 32.922 91.8174 32.4966 92.2427C32.0713 92.668 31.4944 92.907 30.8929 92.907Z" fill="#B7B7B7" style="fill:#B7B7B7;fill:color(display-p3 0.7159 0.7159 0.7159);fill-opacity:1;"/>
<path d="M97.7491 92.907C97.2701 92.909 96.8026 92.7598 96.4134 92.4806C96.0241 92.2014 95.7329 91.8065 95.5813 91.3521C95.4297 90.8977 95.4254 90.407 95.569 89.95C95.7126 89.493 95.9968 89.093 96.3811 88.807C96.4513 88.7541 96.5248 88.7056 96.6011 88.662C96.8562 88.511 97.1386 88.4119 97.4321 88.3704C97.7256 88.3289 98.0244 88.3458 98.3113 88.4202C98.5983 88.4945 98.8677 88.6248 99.1042 88.8036C99.3406 88.9824 99.5394 89.2061 99.6891 89.462C99.8905 89.8093 99.9977 90.2032 100 90.6046C100.003 91.0061 99.9002 91.4012 99.7031 91.751C99.5075 92.0982 99.224 92.3879 98.881 92.5908C98.538 92.7937 98.1476 92.9028 97.7491 92.907V92.907Z" fill="#B7B7B7" style="fill:#B7B7B7;fill:color(display-p3 0.7159 0.7159 0.7159);fill-opacity:1;"/>
<path d="M93 84.672C92.6011 84.6726 92.209 84.5678 91.8634 84.3684C91.5179 84.1689 91.2311 83.8818 91.032 83.536L90.985 83.453C90.6971 82.9325 90.6252 82.3196 90.7849 81.7466C90.9445 81.1736 91.3229 80.6862 91.8385 80.3895C92.3541 80.0928 92.9656 80.0106 93.5413 80.1605C94.117 80.3104 94.6107 80.6805 94.916 81.191L94.964 81.273C95.1623 81.6177 95.2665 82.0085 95.2662 82.4061C95.2658 82.8038 95.1609 83.1944 94.9619 83.5387C94.763 83.883 94.477 84.169 94.1326 84.3679C93.7883 84.5668 93.3977 84.6717 93 84.672ZM88.218 76.4C87.8191 76.4006 87.427 76.2959 87.0814 76.0964C86.7359 75.8969 86.4491 75.6098 86.25 75.264L86.203 75.181C85.9151 74.6605 85.8432 74.0476 86.0029 73.4746C86.1625 72.9016 86.5409 72.4142 87.0565 72.1175C87.5721 71.8208 88.1836 71.7386 88.7593 71.8885C89.335 72.0384 89.8287 72.4085 90.134 72.919L90.182 73.001C90.3806 73.3457 90.485 73.7366 90.4847 74.1344C90.4845 74.5322 90.3796 74.923 90.1806 75.2674C89.9817 75.6119 89.6956 75.898 89.3511 76.097C89.0066 76.2959 88.6159 76.4008 88.218 76.401V76.4ZM83.439 68.122C83.0401 68.1226 82.648 68.0179 82.3024 67.8184C81.9569 67.6189 81.6701 67.3318 81.471 66.986L81.424 66.904C81.1298 66.3831 81.0533 65.7669 81.2112 65.1899C81.3691 64.6128 81.7487 64.1215 82.2672 63.823C82.7857 63.5245 83.4012 63.4429 83.9796 63.5962C84.5579 63.7494 85.0523 64.1249 85.355 64.641L85.403 64.724C85.6016 65.0687 85.706 65.4596 85.7057 65.8574C85.7055 66.2552 85.6006 66.646 85.4016 66.9904C85.2027 67.3349 84.9166 67.621 84.5721 67.82C84.2276 68.0189 83.8369 68.1238 83.439 68.124V68.122ZM78.66 59.84C78.2632 59.8401 77.8732 59.7359 77.5293 59.538C77.1853 59.34 76.8993 59.0552 76.7 58.712L76.652 58.63C76.3578 58.1105 76.2803 57.4959 76.4363 56.9196C76.5923 56.3433 76.9693 55.8518 77.4854 55.5517C78.0015 55.2515 78.6152 55.167 79.1932 55.3165C79.7713 55.466 80.2671 55.8373 80.573 56.35L80.62 56.432C80.8204 56.7766 80.9264 57.168 80.9274 57.5666C80.9283 57.9653 80.8242 58.3571 80.6254 58.7027C80.4267 59.0483 80.1403 59.3354 79.7953 59.535C79.4503 59.7347 79.0587 59.8399 78.66 59.84V59.84ZM73.881 51.563C73.4821 51.5635 73.0901 51.4586 72.7447 51.259C72.3993 51.0593 72.1127 50.772 71.914 50.426L71.866 50.344C71.5659 49.8223 71.4854 49.2028 71.6421 48.6217C71.7988 48.0406 72.1799 47.5456 72.7015 47.2455C73.2232 46.9454 73.8427 46.8649 74.4238 47.0215C75.0049 47.1782 75.4999 47.5593 75.8 48.081L75.848 48.164C76.0466 48.5087 76.151 48.8996 76.1507 49.2974C76.1505 49.6952 76.0456 50.086 75.8466 50.4304C75.6477 50.7749 75.3616 51.061 75.0171 51.26C74.6726 51.4589 74.2819 51.5638 73.884 51.564L73.881 51.563ZM69.1 43.286C68.7009 43.2866 68.3088 43.1817 67.9632 42.9821C67.6176 42.7824 67.3309 42.495 67.132 42.149L67.084 42.067C66.7834 41.5452 66.7024 40.9253 66.8588 40.3438C67.0152 39.7622 67.3962 39.2666 67.918 38.966C68.4399 38.6654 69.0597 38.5844 69.6413 38.7408C70.2228 38.8972 70.7184 39.2782 71.019 39.8L71.066 39.883C71.2646 40.2277 71.3689 40.6184 71.3687 41.0162C71.3685 41.4139 71.2637 41.8046 71.0649 42.149C70.866 42.4935 70.5801 42.7795 70.2357 42.9786C69.8914 43.1776 69.5008 43.2826 69.103 43.283L69.1 43.286ZM64.321 35.008C63.9219 35.0086 63.5298 34.9037 63.1842 34.7041C62.8386 34.5044 62.5519 34.217 62.353 33.871L62.305 33.789C62.1565 33.5308 62.0603 33.2459 62.0219 32.9506C61.9835 32.6552 62.0036 32.3552 62.0811 32.0676C62.2377 31.4868 62.6186 30.992 63.14 30.692C63.6615 30.392 64.2807 30.3115 64.8615 30.4681C65.4423 30.6247 65.9371 31.0056 66.237 31.527L66.284 31.609C66.4825 31.9537 66.5869 32.3444 66.5867 32.7422C66.5865 33.1399 66.4817 33.5306 66.2829 33.875C66.084 34.2195 65.7981 34.5055 65.4537 34.7046C65.1094 34.9036 64.7188 35.0086 64.321 35.009V35.008Z" fill="#B7B7B7" style="fill:#B7B7B7;fill:color(display-p3 0.7159 0.7159 0.7159);fill-opacity:1;"/>
<path d="M59.5189 43.4C59.2093 43.4001 58.9029 43.3364 58.6189 43.213C58.5338 43.1767 58.451 43.1353 58.3709 43.089C58.113 42.9424 57.8867 42.7462 57.705 42.5118C57.5232 42.2773 57.3896 42.0093 57.3119 41.723C57.2342 41.4367 57.2139 41.1379 57.2522 40.8437C57.2905 40.5496 57.3865 40.2659 57.5349 40.009C57.7352 39.6621 58.0225 39.3735 58.3686 39.1718C58.7147 38.9701 59.1074 38.8623 59.5079 38.859C60.0087 38.854 60.4971 39.015 60.8968 39.3167C61.2966 39.6185 61.5852 40.0441 61.7176 40.5271C61.8501 41.0101 61.8189 41.5234 61.6291 41.9868C61.4392 42.4502 61.1012 42.8378 60.6679 43.089C60.319 43.2921 59.9226 43.3994 59.5189 43.4V43.4Z" fill="#B7B7B7" style="fill:#B7B7B7;fill:color(display-p3 0.7159 0.7159 0.7159);fill-opacity:1;"/>
<path d="M40.0001 77.1769C39.602 77.1775 39.2107 77.0731 38.8658 76.8744C38.5208 76.6757 38.2343 76.3895 38.035 76.0448C37.8358 75.7001 37.7309 75.309 37.731 74.9109C37.731 74.5127 37.8359 74.1216 38.0351 73.7769L38.0831 73.6929C38.2288 73.4298 38.4253 73.1982 38.6613 73.0117C38.8973 72.8252 39.168 72.6875 39.4577 72.6066C39.7474 72.5258 40.0503 72.5033 40.3487 72.5406C40.6472 72.5779 40.9353 72.6742 41.1962 72.8239C41.457 72.9736 41.6856 73.1736 41.8684 73.4125C42.0512 73.6513 42.1847 73.9241 42.2611 74.215C42.3375 74.5059 42.3553 74.8091 42.3134 75.107C42.2715 75.4048 42.1708 75.6914 42.0171 75.9499L41.9691 76.0339C41.771 76.3813 41.4845 76.6701 41.1387 76.8708C40.7928 77.0716 40.4 77.1772 40.0001 77.1769V77.1769ZM44.8731 68.7369C44.4753 68.7366 44.0846 68.6317 43.7402 68.4327C43.3958 68.2337 43.1097 67.9477 42.9106 67.6033C42.7116 67.2589 42.6066 66.8682 42.6062 66.4705C42.6057 66.0727 42.7098 65.6818 42.9081 65.3369L42.9561 65.2529C43.1018 64.9898 43.2983 64.7582 43.5343 64.5717C43.7703 64.3852 44.041 64.2475 44.3307 64.1666C44.6204 64.0858 44.9233 64.0633 45.2217 64.1006C45.5202 64.1379 45.8083 64.2342 46.0692 64.3839C46.33 64.5336 46.5586 64.7336 46.7414 64.9725C46.9242 65.2113 47.0577 65.4841 47.1341 65.775C47.2105 66.0659 47.2283 66.3691 47.1864 66.667C47.1445 66.9648 47.0438 67.2514 46.8901 67.5099L46.8421 67.5939C46.644 67.9411 46.3577 68.2297 46.012 68.4304C45.6664 68.6312 45.2738 68.7369 44.8741 68.7369H44.8731ZM49.7481 60.2999C49.3499 60.2995 48.9588 60.1943 48.6142 59.9948C48.2696 59.7952 47.9836 59.5085 47.7849 59.1634C47.5863 58.8183 47.482 58.4269 47.4825 58.0287C47.4831 57.6305 47.5885 57.2395 47.7881 56.8949L47.8371 56.8119C48.1387 56.2917 48.6345 55.9126 49.2156 55.758C49.7967 55.6033 50.4154 55.6859 50.9356 55.9874C51.4558 56.289 51.835 56.7849 51.9896 57.3659C52.1442 57.947 52.0617 58.5657 51.7601 59.0859L51.7111 59.1699C51.5119 59.514 51.2256 59.7996 50.881 59.9979C50.5364 60.1963 50.1457 60.3004 49.7481 60.2999V60.2999ZM54.6211 51.8589C54.223 51.8583 53.8321 51.753 53.4876 51.5534C53.1431 51.3538 52.8572 51.067 52.6587 50.722C52.4601 50.3769 52.3559 49.9856 52.3565 49.5875C52.3571 49.1894 52.4625 48.7984 52.6621 48.4539L52.7101 48.3709C53.0117 47.8507 53.5075 47.4716 54.0886 47.317C54.6697 47.1623 55.2884 47.2449 55.8086 47.5464C56.3288 47.848 56.708 48.3439 56.8626 48.9249C57.0172 49.506 56.9347 50.1247 56.6331 50.6449L56.5851 50.7289C56.3849 51.072 56.0982 51.3565 55.7535 51.554C55.4088 51.7514 55.0183 51.8548 54.6211 51.8539V51.8589Z" fill="#B7B7B7" style="fill:#B7B7B7;fill:color(display-p3 0.7159 0.7159 0.7159);fill-opacity:1;"/>
<path d="M35.2 85.574C34.7984 85.5745 34.4037 85.47 34.0551 85.2707C33.7065 85.0714 33.4162 84.7843 33.213 84.438C33.0428 84.1465 32.9398 83.8208 32.9114 83.4844C32.883 83.1481 32.9299 82.8097 33.0488 82.4938C33.1677 82.178 33.3555 81.8926 33.5986 81.6584C33.8417 81.4243 34.134 81.2473 34.4541 81.1404C34.7742 81.0334 35.1142 80.9992 35.4492 81.0403C35.7842 81.0813 36.1058 81.1965 36.3907 81.3775C36.6756 81.5585 36.9165 81.8007 37.0959 82.0866C37.2754 82.3725 37.3888 82.6947 37.428 83.03C37.4401 83.1215 37.4461 83.2137 37.446 83.306C37.4485 83.6027 37.3923 83.8969 37.2805 84.1718C37.1688 84.4466 37.0038 84.6967 36.7951 84.9075C36.5863 85.1183 36.3379 85.2857 36.0641 85.4001C35.7904 85.5145 35.4967 85.5736 35.2 85.574V85.574Z" fill="#B7B7B7" style="fill:#B7B7B7;fill:color(display-p3 0.7159 0.7159 0.7159);fill-opacity:1;"/>
<path d="M74.1881 85.5739H74.0881C73.495 85.5615 72.9303 85.3171 72.5153 84.8932C72.1002 84.4694 71.8677 83.8997 71.8677 83.3065C71.8677 82.7132 72.1002 82.1435 72.5153 81.7197C72.9303 81.2958 73.495 81.0514 74.0881 81.039H74.1881C74.4899 81.0326 74.7899 81.0866 75.0706 81.1977C75.3512 81.3088 75.6069 81.4748 75.8225 81.686C76.0382 81.8972 76.2095 82.1493 76.3265 82.4275C76.4435 82.7058 76.5037 83.0046 76.5037 83.3065C76.5037 83.6083 76.4435 83.9071 76.3265 84.1854C76.2095 84.4636 76.0382 84.7157 75.8225 84.9269C75.6069 85.1381 75.3512 85.3041 75.0706 85.4152C74.7899 85.5263 74.4899 85.5803 74.1881 85.5739V85.5739ZM64.4411 85.5739H64.3411C63.748 85.5615 63.1833 85.3171 62.7683 84.8932C62.3532 84.4694 62.1207 83.8997 62.1207 83.3065C62.1207 82.7132 62.3532 82.1435 62.7683 81.7197C63.1833 81.2958 63.748 81.0514 64.3411 81.039H64.4411C64.7429 81.0326 65.0429 81.0866 65.3236 81.1977C65.6042 81.3088 65.8599 81.4748 66.0755 81.686C66.2912 81.8972 66.4625 82.1493 66.5795 82.4275C66.6965 82.7058 66.7567 83.0046 66.7567 83.3065C66.7567 83.6083 66.6965 83.9071 66.5795 84.1854C66.4625 84.4636 66.2912 84.7157 66.0755 84.9269C65.8599 85.1381 65.6042 85.3041 65.3236 85.4152C65.0429 85.5263 64.7429 85.5803 64.4411 85.5739V85.5739ZM54.6941 85.5739H54.5941C54.2923 85.5803 53.9923 85.5263 53.7117 85.4152C53.431 85.3041 53.1754 85.1381 52.9597 84.9269C52.744 84.7157 52.5727 84.4636 52.4557 84.1854C52.3387 83.9071 52.2785 83.6083 52.2785 83.3065C52.2785 83.0046 52.3387 82.7058 52.4557 82.4275C52.5727 82.1493 52.744 81.8972 52.9597 81.686C53.1754 81.4748 53.431 81.3088 53.7117 81.1977C53.9923 81.0866 54.2923 81.0326 54.5941 81.039H54.6941C54.9959 81.0326 55.2959 81.0866 55.5766 81.1977C55.8572 81.3088 56.1129 81.4748 56.3285 81.686C56.5442 81.8972 56.7155 82.1493 56.8325 82.4275C56.9495 82.7058 57.0097 83.0046 57.0097 83.3065C57.0097 83.6083 56.9495 83.9071 56.8325 84.1854C56.7155 84.4636 56.5442 84.7157 56.3285 84.9269C56.1129 85.1381 55.8572 85.3041 55.5766 85.4152C55.2959 85.5263 54.9959 85.5803 54.6941 85.5739ZM44.9471 85.5739H44.8471C44.5453 85.5803 44.2453 85.5263 43.9647 85.4152C43.684 85.3041 43.4284 85.1381 43.2127 84.9269C42.997 84.7157 42.8257 84.4636 42.7087 84.1854C42.5917 83.9071 42.5315 83.6083 42.5315 83.3065C42.5315 83.0046 42.5917 82.7058 42.7087 82.4275C42.8257 82.1493 42.997 81.8972 43.2127 81.686C43.4284 81.4748 43.684 81.3088 43.9647 81.1977C44.2453 81.0866 44.5453 81.0326 44.8471 81.039H44.9471C45.2489 81.0326 45.5489 81.0866 45.8296 81.1977C46.1102 81.3088 46.3659 81.4748 46.5815 81.686C46.7972 81.8972 46.9685 82.1493 47.0855 82.4275C47.2025 82.7058 47.2627 83.0046 47.2627 83.3065C47.2627 83.6083 47.2025 83.9071 47.0855 84.1854C46.9685 84.4636 46.7972 84.7157 46.5815 84.9269C46.3659 85.1381 46.1102 85.3041 45.8296 85.4152C45.5489 85.5263 45.2489 85.5803 44.9471 85.5739Z" fill="#B7B7B7" style="fill:#B7B7B7;fill:color(display-p3 0.7159 0.7159 0.7159);fill-opacity:1;"/>
<path d="M83.8841 85.574C83.4051 85.576 82.9376 85.4268 82.5484 85.1476C82.1591 84.8684 81.8679 84.4734 81.7163 84.019C81.5647 83.5646 81.5604 83.074 81.704 82.617C81.8476 82.16 82.1318 81.76 82.5161 81.474C82.586 81.4211 82.6591 81.3726 82.7351 81.329C82.9902 81.1781 83.2726 81.0791 83.5661 81.0377C83.8596 80.9963 84.1583 81.0132 84.4453 81.0876C84.7322 81.1619 85.0016 81.2922 85.238 81.4709C85.4745 81.6496 85.6733 81.8732 85.8231 82.129C86.025 82.4761 86.1326 82.87 86.1351 83.2716C86.1375 83.6732 86.0348 84.0684 85.8371 84.418C85.6418 84.7652 85.3584 85.0549 85.0156 85.2578C84.6727 85.4608 84.2825 85.5698 83.8841 85.574Z" fill="#B7B7B7" style="fill:#B7B7B7;fill:color(display-p3 0.7159 0.7159 0.7159);fill-opacity:1;"/>
<path d="M79.0379 77.1771C78.6402 77.1778 78.2492 77.0738 77.9044 76.8754C77.5596 76.6771 77.2732 76.3913 77.0739 76.0471L77.0259 75.9641C76.8766 75.7065 76.7794 75.422 76.7399 75.1268C76.7005 74.8317 76.7196 74.5317 76.7961 74.2439C76.8726 73.9561 77.0051 73.6863 77.1859 73.4497C77.3667 73.2131 77.5924 73.0144 77.8499 72.8651C78.1075 72.7157 78.392 72.6185 78.6872 72.5791C78.9823 72.5396 79.2823 72.5587 79.5701 72.6352C79.8579 72.7118 80.1277 72.8442 80.3643 73.025C80.6009 73.2058 80.7996 73.4315 80.9489 73.6891L80.9969 73.7721C81.1972 74.1164 81.3031 74.5075 81.304 74.9059C81.3049 75.3042 81.2008 75.6958 81.0021 76.0411C80.8035 76.3864 80.5173 76.6732 80.1725 76.8726C79.8276 77.0721 79.4363 77.1771 79.0379 77.1771V77.1771ZM74.1639 68.7371C73.7661 68.7377 73.375 68.6336 73.0302 68.435C72.6854 68.2364 72.3991 67.9505 72.1999 67.6061L72.1509 67.5231C71.8561 67.0031 71.7785 66.3877 71.9349 65.8108C72.0913 65.2339 72.4692 64.7421 72.9863 64.4423C73.5034 64.1425 74.118 64.0589 74.6964 64.2098C75.2748 64.3607 75.7702 64.7338 76.0749 65.2481L76.1229 65.3321C76.3226 65.6766 76.428 66.0676 76.4285 66.4659C76.4291 66.8641 76.3248 67.2554 76.1261 67.6005C75.9275 67.9456 75.6415 68.2324 75.2968 68.4319C74.9522 68.6314 74.5612 68.7366 74.1629 68.7371H74.1639ZM69.2909 60.3001C68.8915 60.3005 68.499 60.1954 68.1532 59.9954C67.8075 59.7954 67.5207 59.5076 67.3219 59.1611L67.2729 59.0761C66.9846 58.5551 66.9128 57.9416 67.0729 57.3681C67.233 56.7945 67.6122 56.307 68.1287 56.0107C68.6452 55.7143 69.2575 55.633 69.8334 55.7843C70.4094 55.9355 70.9027 56.3072 71.2069 56.8191L71.2549 56.9041C71.4535 57.2488 71.5579 57.6397 71.5576 58.0375C71.5574 58.4353 71.4525 58.826 71.2535 59.1705C71.0546 59.515 70.7685 59.801 70.424 60C70.0795 60.199 69.6888 60.3038 69.2909 60.3041V60.3001ZM64.4169 51.8591C64.0175 51.8597 63.6249 51.7547 63.2791 51.5547C62.9333 51.3546 62.6465 51.0667 62.4479 50.7201L62.3999 50.6361C62.2463 50.3775 62.1455 50.091 62.1036 49.7931C62.0618 49.4953 62.0795 49.1921 62.1559 48.9011C62.2323 48.6102 62.3658 48.3374 62.5487 48.0986C62.7315 47.8597 62.96 47.6597 63.2209 47.51C63.4818 47.3603 63.7699 47.264 64.0683 47.2267C64.3668 47.1894 64.6697 47.2119 64.9594 47.2928C65.2491 47.3736 65.5198 47.5113 65.7558 47.6978C65.9918 47.8843 66.1883 48.1159 66.3339 48.3791L66.3819 48.4631C66.5812 48.8078 66.6861 49.1988 66.6861 49.597C66.6861 49.9951 66.5812 50.3862 66.382 50.7309C66.1828 51.0756 65.8963 51.3618 65.5513 51.5605C65.2063 51.7593 64.8151 51.8636 64.4169 51.8631V51.8591Z" fill="#B7B7B7" style="fill:#B7B7B7;fill:color(display-p3 0.7159 0.7159 0.7159);fill-opacity:1;"/>
<path d="M59.519 59.507C59.2062 59.507 58.8969 59.4416 58.611 59.315C58.5353 59.2829 58.4615 59.2465 58.39 59.206C58.1306 59.0621 57.9022 58.8683 57.7181 58.6357C57.534 58.4031 57.3978 58.1364 57.3173 57.8509C57.2367 57.5654 57.2136 57.2668 57.249 56.9723C57.2845 56.6777 57.378 56.3932 57.524 56.135C57.7232 55.7832 58.0113 55.49 58.3595 55.2847C58.7077 55.0793 59.1038 54.9691 59.508 54.965C60.1103 54.9635 60.6885 55.2014 61.1154 55.6262C61.5424 56.0511 61.783 56.6282 61.7845 57.2305C61.7859 57.8328 61.5481 58.411 61.1232 58.8379C60.6983 59.2649 60.1213 59.5055 59.519 59.507V59.507Z" fill="#B7B7B7" style="fill:#B7B7B7;fill:color(display-p3 0.7159 0.7159 0.7159);fill-opacity:1;"/>
<path d="M54.2829 68.546C53.8854 68.5452 53.4951 68.4399 53.1512 68.2407C52.8072 68.0414 52.5217 67.7552 52.3232 67.4108C52.1248 67.0664 52.0204 66.6758 52.0205 66.2783C52.0206 65.8808 52.1253 65.4903 52.3239 65.146L52.3749 65.057C52.5185 64.7891 52.7145 64.5528 52.9512 64.3621C53.188 64.1714 53.4606 64.0302 53.753 63.947C54.0454 63.8638 54.3515 63.8402 54.6531 63.8776C54.9548 63.915 55.2459 64.0127 55.5091 64.1648C55.7722 64.317 56.0021 64.5205 56.1851 64.7632C56.3681 65.006 56.5004 65.283 56.5742 65.5779C56.6479 65.8728 56.6617 66.1795 56.6146 66.4798C56.5675 66.7801 56.4605 67.0679 56.2999 67.326L56.2479 67.415C56.0485 67.7595 55.7619 68.0453 55.417 68.2438C55.0721 68.4424 54.6809 68.5466 54.2829 68.546V68.546Z" fill="#B7B7B7" style="fill:#B7B7B7;fill:color(display-p3 0.7159 0.7159 0.7159);fill-opacity:1;"/>
<path d="M49.1489 77.521C48.7498 77.5216 48.3573 77.4187 48.0099 77.2222C47.6625 77.0257 47.372 76.7424 47.1669 76.4C46.9639 76.0595 46.8538 75.6717 46.8475 75.2753C46.8411 74.8789 46.9389 74.4878 47.1309 74.141C47.3657 73.7194 47.7285 73.3834 48.1668 73.1815C48.6051 72.9796 49.0963 72.9224 49.5693 73.018C50.0423 73.1136 50.4726 73.3572 50.7981 73.7135C51.1236 74.0697 51.3273 74.5203 51.3799 75C51.3892 75.0843 51.3938 75.1691 51.3939 75.254C51.3964 75.5505 51.3402 75.8447 51.2286 76.1194C51.1169 76.3941 50.952 76.6441 50.7433 76.8548C50.5346 77.0655 50.2863 77.2329 50.0127 77.3472C49.739 77.4615 49.4455 77.5206 49.1489 77.521Z" fill="#B7B7B7" style="fill:#B7B7B7;fill:color(display-p3 0.7159 0.7159 0.7159);fill-opacity:1;"/>
<path d="M59.5709 77.521H59.4709C59.1691 77.5273 58.8691 77.4733 58.5885 77.3622C58.3078 77.2511 58.0521 77.0851 57.8365 76.8739C57.6208 76.6628 57.4495 76.4106 57.3325 76.1324C57.2155 75.8541 57.1553 75.5553 57.1553 75.2535C57.1553 74.9516 57.2155 74.6528 57.3325 74.3746C57.4495 74.0963 57.6208 73.8442 57.8365 73.633C58.0521 73.4218 58.3078 73.2558 58.5885 73.1447C58.8691 73.0336 59.1691 72.9796 59.4709 72.986H59.5709C60.164 72.9984 60.7287 73.2428 61.1437 73.6667C61.5588 74.0906 61.7913 74.6602 61.7913 75.2535C61.7913 75.8467 61.5588 76.4164 61.1437 76.8403C60.7287 77.2641 60.164 77.5085 59.5709 77.521V77.521Z" fill="#B7B7B7" style="fill:#B7B7B7;fill:color(display-p3 0.7159 0.7159 0.7159);fill-opacity:1;"/>
<path d="M69.9349 77.521C69.4575 77.5251 68.9909 77.3788 68.6012 77.1029C68.2115 76.8271 67.9185 76.4356 67.7636 75.984C67.6088 75.5324 67.5999 75.0435 67.7383 74.5865C67.8768 74.1296 68.1554 73.7278 68.5349 73.438C68.7901 73.2397 69.0849 73.0984 69.3993 73.0237C69.7138 72.949 70.0406 72.9426 70.3577 73.005C70.6749 73.0674 70.9749 73.197 71.2377 73.3852C71.5004 73.5734 71.7198 73.8158 71.8809 74.096C72.0789 74.4432 72.183 74.8359 72.183 75.2355C72.183 75.6351 72.0789 76.0279 71.8809 76.375C71.6847 76.7192 71.4019 77.0061 71.0605 77.2072C70.7191 77.4082 70.331 77.5164 69.9349 77.521Z" fill="#B7B7B7" style="fill:#B7B7B7;fill:color(display-p3 0.7159 0.7159 0.7159);fill-opacity:1;"/>
<path d="M64.755 68.545C64.3571 68.5457 63.9661 68.4415 63.6213 68.243C63.2765 68.0444 62.9901 67.7585 62.791 67.414L62.739 67.325C62.5897 67.0674 62.4927 66.7829 62.4534 66.4877C62.4141 66.1925 62.4334 65.8925 62.51 65.6048C62.5867 65.3171 62.7192 65.0473 62.9002 64.8108C63.0811 64.5743 63.3068 64.3758 63.5645 64.2265C63.8221 64.0773 64.1067 63.9803 64.4018 63.941C64.697 63.9017 64.997 63.9209 65.2847 63.9976C65.5724 64.0742 65.8422 64.2068 66.0787 64.3877C66.3152 64.5687 66.5137 64.7944 66.663 65.052L66.715 65.141C66.9137 65.4854 67.0183 65.876 67.0184 66.2736C67.0185 66.6712 66.914 67.0618 66.7154 67.4062C66.5169 67.7507 66.2312 68.0369 65.8871 68.2361C65.543 68.4352 65.1526 68.5404 64.755 68.541V68.545Z" fill="#B7B7B7" style="fill:#B7B7B7;fill:color(display-p3 0.7159 0.7159 0.7159);fill-opacity:1;"/>
</g>
<defs>
<clipPath id="clip0_103_86">
<rect width="100" height="100" fill="white" style="fill:white;fill-opacity:1;"/>
</clipPath>
</defs>
</svg>
